<?xml version="1.0" encoding="UTF-8"?>
<svg version="1.1" xmlns="http://www.w3.org/2000/svg" width="2400" height="1500">
<path d="M0 0 C792 0 1584 0 2400 0 C2400 495 2400 990 2400 1500 C1608 1500 816 1500 0 1500 C0 1005 0 510 0 0 Z " fill="#FEFEFE" transform="translate(0,0)"/>
<path d="M0 0 C1.98453128 1.04094784 3.99420989 2.02080141 6.00878906 3.00219727 C29.84715675 14.88972707 46.38807516 39.67721317 55.91894531 63.72485352 C60.14265123 77.14248672 60.36247344 96.26450329 53.82128906 108.95532227 C53.07878906 110.50219727 53.07878906 110.50219727 52.32128906 112.08032227 C49.33001337 114.32377903 47.4370409 114.41920861 43.75878906 114.89282227 C39.07465714 115.33524834 39.07465714 115.33524834 35.82128906 118.45532227 C35.49128906 119.61032227 35.16128906 120.76532227 34.82128906 121.95532227 C34.23578566 123.52491119 33.62967729 125.08689122 33.00878906 126.64282227 C32.67234375 127.4974707 32.33589844 128.35211914 31.98925781 129.23266602 C29.00370244 136.19230514 25.17164256 142.7644346 20.82128906 148.95532227 C27.03341127 145.25950272 32.58634077 141.69757595 37.38378906 136.24047852 C38.82128906 134.95532227 38.82128906 134.95532227 41.82128906 134.95532227 C41.04357126 142.08227723 35.28508154 147.09551041 29.96191406 151.49047852 C26.39274964 153.95532227 26.39274964 153.95532227 23.82128906 153.95532227 C23.82128906 154.61532227 23.82128906 155.27532227 23.82128906 155.95532227 C27.12128906 155.95532227 30.42128906 155.95532227 33.82128906 155.95532227 C33.82128906 156.61532227 33.82128906 157.27532227 33.82128906 157.95532227 C31.49513127 159.11840116 30.09465398 159.08901425 27.50878906 159.08032227 C26.74953125 159.08290039 25.99027344 159.08547852 25.20800781 159.08813477 C22.66809135 158.94679735 20.30142475 158.50841447 17.82128906 157.95532227 C26.61071698 168.53459732 36.11014653 178.63126918 47.82128906 185.95532227 C48.80871094 186.5830957 49.79613281 187.21086914 50.81347656 187.85766602 C52.72682721 189.07276792 54.64555421 190.27947549 56.57128906 191.47485352 C58.82128906 192.95532227 58.82128906 192.95532227 60.82128906 194.95532227 C60.71441461 198.80280253 59.21366057 201.53248346 56.67675781 204.39672852 C51.47139643 208.76923208 44.72877741 212.488621 37.82128906 211.95532227 C40.04430829 217.87596347 43.13995792 221.97035915 47.50097656 226.50415039 C49.96359334 229.24399157 50.83604424 230.47975145 50.71972656 234.22875977 C49.82128906 236.95532227 49.82128906 236.95532227 48.19628906 238.51782227 C47.51566406 239.22938477 47.51566406 239.22938477 46.82128906 239.95532227 C47.08231321 243.43564427 47.85526438 245.00628525 49.82128906 247.95532227 C50.08236787 250.97861482 49.90944088 253.91408469 49.82128906 256.95532227 C46.52128906 257.94532227 43.22128906 258.93532227 39.82128906 259.95532227 C40.76895019 264.69362789 41.44168202 266.21420147 44.19628906 269.89282227 C49.33018362 277.05075739 51.98009494 282.02724973 50.82128906 290.95532227 C48.79124601 298.95465857 44.65620545 305.60588899 37.82519531 310.33813477 C26.10943575 316.48622143 11.85333271 312.26818635 -0.17871094 308.95532227 C-1.16613281 308.6137207 -2.15355469 308.27211914 -3.17089844 307.92016602 C-7.02214014 306.6847677 -10.88074647 306.04273839 -14.86621094 305.39282227 C-22.81891364 304.0752547 -22.81891364 304.0752547 -26.17871094 302.95532227 C-25.91606445 303.46579102 -25.65341797 303.97625977 -25.3828125 304.50219727 C-22.31424896 310.85911127 -20.99097067 317.00709879 -19.92871094 323.95532227 C-19.75597656 324.98399414 -19.58324219 326.01266602 -19.40527344 327.07250977 C-18.43711138 333.11199691 -18.00037828 338.84105976 -18.17871094 344.95532227 C-22.79871094 344.62532227 -27.41871094 344.29532227 -32.17871094 343.95532227 C-30.7550227 352.56813125 -29.29174124 361.03975899 -26.86230469 369.43579102 C-25.65571775 373.88292573 -24.95520645 378.41713739 -24.17871094 382.95532227 C-22.31359093 393.75920245 -22.31359093 393.75920245 -19.67871094 404.39282227 C-17.94677792 410.39564769 -16.95411862 416.4935074 -15.92480469 422.64672852 C-13.94347284 434.28605583 -11.23202625 445.77984568 -8.63769531 457.29394531 C-6.81029041 465.41177627 -5.02957105 473.50758973 -3.61035156 481.70874023 C-3.00654502 484.851403 -2.07163797 487.88408534 -1.17871094 490.95532227 C-0.60886357 493.71483554 -0.1398503 496.48831743 0.32128906 499.26782227 C2.533369 512.3822962 5.43977719 525.32325129 8.36230469 538.29394531 C10.19351005 546.42865896 11.99154469 554.54504424 13.42285156 562.76171875 C13.92930587 565.55001036 14.59616606 568.27890658 15.32128906 571.01782227 C16.297712 574.79594116 17.16122835 578.55812995 17.88378906 582.39282227 C18.3961682 585.10669482 18.94680123 587.25919382 20.00878906 589.83032227 C20.96013886 592.31846789 20.73275913 593.49435307 19.82128906 595.95532227 C17.51128906 595.95532227 15.20128906 595.95532227 12.82128906 595.95532227 C11.85572979 592.0404018 10.90021919 588.12309113 9.94628906 584.20532227 C9.676875 583.11348633 9.40746094 582.02165039 9.12988281 580.89672852 C7.55267562 574.39555739 6.24027713 567.92639643 5.24658203 561.30981445 C4.93337755 558.94524608 4.93337755 558.94524608 3.82128906 556.95532227 C3.49080831 555.00067621 3.19725239 553.0397201 2.92285156 551.07641602 C1.96525717 544.6421929 0.66076313 538.35297355 -0.80371094 532.01782227 C-2.70896387 523.63264568 -4.55545769 515.23924627 -6.31542969 506.82250977 C-6.49601929 505.95913498 -6.67660889 505.09576019 -6.8626709 504.20622253 C-7.76278855 499.89632819 -8.65824382 495.58549666 -9.55029297 491.27392578 C-9.88080273 489.68724406 -10.21136656 488.1005736 -10.54199219 486.51391602 C-10.69278732 485.7786972 -10.84358246 485.04347839 -10.99894714 484.28598022 C-11.76555166 480.51504771 -11.76555166 480.51504771 -13.17871094 476.95532227 C-13.50513324 475.02016956 -13.79469333 473.0787354 -14.06542969 471.13500977 C-15.0717561 464.36855644 -16.46204717 457.74532627 -17.99121094 451.08032227 C-18.52549787 448.71323241 -19.05934431 446.34604308 -19.59277344 443.97875977 C-19.85864258 442.80410156 -20.12451172 441.62944336 -20.3984375 440.41918945 C-21.57722698 435.18619035 -22.72609487 429.94686628 -23.86621094 424.70532227 C-24.1728064 423.29851196 -24.1728064 423.29851196 -24.4855957 421.86328125 C-25.94414389 415.13267041 -27.30923203 408.38788328 -28.60058594 401.62329102 C-29.05416144 398.99804488 -29.05416144 398.99804488 -30.17871094 396.95532227 C-30.49948035 395.00154493 -30.78556593 393.04201468 -31.05371094 391.08032227 C-31.85832368 385.6447162 -33.00122294 380.42592974 -34.39355469 375.11547852 C-35.57589804 370.35669357 -36.47753732 365.5481718 -37.41699219 360.73657227 C-38.5495729 355.11432545 -39.85212331 349.53451703 -41.17871094 343.95532227 C-41.96890625 343.91793945 -42.75910156 343.88055664 -43.57324219 343.84204102 C-60.86004193 342.83446754 -76.84369306 339.70593618 -93.17871094 333.95532227 C-94.08492187 333.64981445 -94.99113281 333.34430664 -95.92480469 333.02954102 C-120.59816259 324.00687461 -144.17541991 307.84077264 -163.17871094 289.95532227 C-163.84128906 289.35719727 -164.50386719 288.75907227 -165.18652344 288.14282227 C-169.6695498 283.93204447 -173.34853244 279.264327 -176.99121094 274.33032227 C-177.45970459 273.69658691 -177.92819824 273.06285156 -178.41088867 272.40991211 C-181.06394984 268.73718103 -183.26692647 265.08376048 -185.17871094 260.95532227 C-183.91950285 268.62862158 -181.10362526 274.35028445 -177.17871094 281.01782227 C-176.59347656 282.0278833 -176.00824219 283.03794434 -175.40527344 284.07861328 C-173.67712729 287.04603454 -171.93013486 290.00159733 -170.17871094 292.95532227 C-169.72367188 293.73488281 -169.26863281 294.51444336 -168.79980469 295.31762695 C-162.53620149 306.023676 -155.19820561 315.51052126 -147.17871094 324.95532227 C-146.19277923 326.12437841 -145.20709246 327.29364118 -144.22167969 328.46313477 C-142.83763325 330.10298094 -141.45161129 331.74095682 -140.05957031 333.37402344 C-137.23131482 336.69206259 -134.47244677 340.05721377 -131.74121094 343.45532227 C-126.50716248 349.88786482 -120.83602249 355.89782132 -115.17871094 361.95532227 C-94.13146559 384.53513402 -74.67822583 410.70170395 -74.86621094 442.83032227 C-74.86967529 443.81411865 -74.87313965 444.79791504 -74.87670898 445.81152344 C-75.06295577 458.68313119 -76.62266082 471.33940859 -80.47192383 483.63623047 C-82.09979764 488.97756842 -83.07757086 494.48673896 -84.17871094 499.95532227 C-84.38753906 500.92985352 -84.59636719 501.90438477 -84.81152344 502.90844727 C-87.53149245 516.3167452 -85.88242983 527.10760153 -80.28466797 539.49731445 C-78.38035871 543.72967331 -76.56704175 548.00116453 -74.74121094 552.26782227 C-74.34434082 553.19280518 -73.9474707 554.11778809 -73.53857422 555.07080078 C-71.50094469 559.82846957 -69.49933828 564.59662464 -67.55371094 569.39282227 C-65.81598045 573.61473105 -63.83192555 577.64687625 -61.74121094 581.70532227 C-51.38017316 602.26972986 -43.64254241 626.00878498 -50.92089844 648.76000977 C-54.86972183 658.79149279 -61.68196722 666.18985061 -71.55371094 670.58032227 C-75.98347297 672.31052194 -80.44408829 673.58740408 -85.03955078 674.77392578 C-94.62343514 677.25656903 -101.55484146 679.43447972 -107.03808594 688.19750977 C-110.95693876 694.87328649 -113.25585278 702.08494405 -115.67871094 709.39282227 C-121.25892269 726.1797246 -127.1194065 741.05606709 -143.49121094 749.70532227 C-157.34738236 754.47332042 -173.24324067 749.75019897 -186.62792969 745.57641602 C-200.35268224 741.42458687 -217.44660939 738.49926406 -231.17871094 743.95532227 C-238.37550738 745.74623014 -245.54588875 746.15801027 -252.92871094 746.20532227 C-253.72043701 746.21450684 -254.51216309 746.22369141 -255.32788086 746.2331543 C-260.61307107 746.20552654 -265.0829208 745.33981897 -270.17871094 743.95532227 C-272.09302419 743.70726335 -274.00970842 743.47652734 -275.92871094 743.26782227 C-283.04531849 742.1145027 -288.22847501 738.87566 -294.17871094 734.95532227 C-295.16871094 734.34430664 -296.15871094 733.73329102 -297.17871094 733.10375977 C-305.00092635 728.15376408 -311.54466054 722.34690006 -318.17871094 715.95532227 C-319.13003906 715.09874023 -319.13003906 715.09874023 -320.10058594 714.22485352 C-338.59769764 697.09300482 -354.8800442 666.74102046 -356.32104492 641.45800781 C-356.81541654 626.75139572 -355.80640288 613.20674327 -352.17871094 598.95532227 C-352.01322754 598.27824219 -351.84774414 597.60116211 -351.67724609 596.90356445 C-348.65964985 584.5809441 -344.75118377 572.50416989 -340.61621094 560.51782227 C-337.91191093 552.44730939 -335.93554745 544.27910581 -334.17871094 535.95532227 C-334.03691406 535.28355957 -333.89511719 534.61179687 -333.74902344 533.91967773 C-330.41763117 517.83235307 -328.85052689 502.02208673 -328.97290039 485.61450195 C-328.99134808 483.06134144 -328.99340769 480.50854312 -328.99316406 477.95532227 C-329.00939622 470.45147228 -329.12654347 463.04057888 -329.92700195 455.57250977 C-330.93474723 445.09430479 -330.91573702 434.47293045 -331.17871094 423.95532227 C-331.20884277 422.78759277 -331.23897461 421.61986328 -331.27001953 420.41674805 C-331.88323268 393.25960783 -328.62942632 369.24201232 -315.08105469 345.33813477 C-313.32402107 342.21371769 -311.73386998 339.058647 -310.17871094 335.83032227 C-307.57027858 330.57161104 -304.60112463 325.62525542 -301.48339844 320.65454102 C-298.81541167 316.39857785 -296.25182207 312.08155483 -293.67871094 307.76782227 C-289.12864196 300.16639145 -284.54020006 292.58874602 -279.91064453 285.03549194 C-278.89637896 283.37957536 -277.88515396 281.7217976 -276.87402344 280.06396484 C-273.28608699 274.2231486 -269.57096311 268.54458854 -265.53735352 263.00073242 C-264.01651396 260.904555 -264.01651396 260.904555 -263.17871094 257.95532227 C-271.05202296 260.93291413 -278.56556335 264.49520175 -286.11621094 268.20532227 C-294.31578675 272.19250326 -302.52406765 276.10491773 -310.92871094 279.64282227 C-312.04234009 280.11413574 -312.04234009 280.11413574 -313.1784668 280.5949707 C-336.92000691 290.409203 -370.22237857 289.01504273 -393.8503418 279.36572266 C-399.14011538 277.11625684 -403.79189902 274.76558176 -408.17871094 270.95532227 C-407.62715281 266.747138 -405.122336 263.91294027 -402.55371094 260.70532227 C-402.07514648 260.10123535 -401.59658203 259.49714844 -401.10351562 258.87475586 C-395.98246487 252.52614481 -390.39587731 246.63084572 -384.75683594 240.74438477 C-381.65576322 237.49856428 -378.7006733 234.14445723 -375.75927734 230.75415039 C-370.07829107 224.28867204 -363.71884553 218.52904522 -357.17871094 212.95532227 C-356.22222656 212.10969727 -355.26574219 211.26407227 -354.28027344 210.39282227 C-346.70024978 203.74671363 -338.8098409 198.14984627 -330.17871094 192.95532227 C-329.08816406 192.29274414 -327.99761719 191.63016602 -326.87402344 190.94750977 C-318.64389198 186.04226932 -310.38749432 182.58780732 -301.36621094 179.45532227 C-300.1084082 179.0125293 -300.1084082 179.0125293 -298.82519531 178.56079102 C-283.20298326 173.1092274 -283.20298326 173.1092274 -275.49121094 171.89282227 C-272.52206552 171.41974143 -269.74551267 170.83075234 -266.85058594 169.99829102 C-250.51242763 165.35755882 -234.87939617 165.11265244 -218.17871094 167.95532227 C-219.16247923 162.94704732 -220.4037844 158.16258682 -222.00732422 153.31298828 C-229.54581085 130.34938737 -231.28857315 101.83487039 -220.11621094 79.68579102 C-219.77428711 79.03328369 -219.43236328 78.38077637 -219.08007812 77.70849609 C-218.01485798 75.6366256 -217.21024629 73.52340617 -216.42871094 71.33032227 C-206.35889009 45.84352764 -185.7691547 24.68589565 -163.17871094 9.95532227 C-162.16164063 9.27598633 -161.14457031 8.59665039 -160.09667969 7.89672852 C-143.74899926 -2.65215206 -125.08442535 -9.69848462 -106.17871094 -14.04467773 C-105.199104 -14.27550049 -105.199104 -14.27550049 -104.19970703 -14.51098633 C-68.76631984 -22.47596401 -31.77480369 -16.9868913 0 0 Z " fill="#1E7402" transform="translate(1211.1787109375,383.044677734375)"/>
<path d="M0 0 C25.41268745 -0.88688574 50.14016778 1.72464075 74.47802734 9.23535156 C76.97100767 9.99120968 79.4738167 10.68658798 81.98828125 11.3671875 C115.40750832 20.57492882 147.78917048 38.35758163 174 61 C175.89236961 62.54591636 177.78826591 64.08752479 179.6875 65.625 C186.32631872 71.07393087 192.61288895 76.35108084 198.16796875 82.921875 C200.09766989 85.11078973 202.14437759 87.10539769 204.25 89.125 C221.96863721 106.66314175 236.40581731 129.57858248 247 152 C247.57363281 153.17949219 248.14726563 154.35898437 248.73828125 155.57421875 C256.25940108 171.16083231 261.8840341 187.06612934 266.38916016 203.76855469 C266.93385253 205.75835816 267.51705613 207.73752783 268.10546875 209.71484375 C268.98376018 212.94035943 269.54243318 216.06581137 270 219.375 C270.53009304 223.0318137 271.09567516 226.60552582 272 230.1875 C275.09574232 243.5942836 275.4428844 257.67239204 275.4375 271.375 C275.43860275 272.6185878 275.43860275 272.6185878 275.43972778 273.88729858 C275.3638667 306.96941163 269.00767601 338.50456882 257.5769043 369.5324707 C254.05131643 379.17201919 254.03047909 385.94688937 256.1875 395.9375 C256.53107544 397.58963501 256.53107544 397.58963501 256.8815918 399.27514648 C258.70184634 407.91204923 260.76203565 416.46258042 263 425 C257.72 425 252.44 425 247 425 C246.625 417.4375 246.625 417.4375 246.52197266 415.09936523 C246.26057779 410.45871936 245.43013592 406.42411966 244 402 C240.97869901 405.57907963 238.67366769 409.20239481 236.4375 413.3125 C228.99382242 426.62294041 220.07448584 438.5833021 210 450 C209.36320312 450.73605469 208.72640625 451.47210937 208.0703125 452.23046875 C206.39362514 454.16599955 204.70080593 456.08563996 203 458 C202.28070312 458.81210937 201.56140625 459.62421875 200.8203125 460.4609375 C190.36008921 472.18906665 190.36008921 472.18906665 187 475 C186.34 475 185.68 475 185 475 C188.69916644 489.36983887 193.24649987 504.24649987 204 515 C204.97978844 512.06063467 205.13711293 510.08545575 205.17578125 507.01953125 C205.73130094 480.42375598 211.90204374 460.09795626 231 441 C233.53049402 440.92686433 236.03304837 440.90752473 238.5625 440.9375 C239.62887695 440.94426758 239.62887695 440.94426758 240.71679688 440.95117188 C242.47790013 440.96299136 244.23896036 440.98092737 246 441 C245.96302002 441.74378906 245.92604004 442.48757813 245.88793945 443.25390625 C245.6046133 454.00918929 247.07076637 464.33493869 248.71606445 474.94042969 C249.18622563 477.99172947 249.63012964 481.04609143 250.07226562 484.1015625 C251.55330386 493.99323053 253.30097193 503.25053284 257.0402832 512.55078125 C258 515 258 515 258 517 C252.39 517 246.78 517 241 517 C241.04125 515.1025 241.0825 513.205 241.125 511.25 C241.07778383 500.39027984 240.33126828 491.45516554 233 483 C228.68166282 478.66067781 228.68166282 478.66067781 223.0546875 476.90234375 C222.33539062 476.91394531 221.61609375 476.92554688 220.875 476.9375 C218.956875 476.9684375 218.956875 476.9684375 217 477 C213.68552855 488.3934956 213.24195396 500.94549395 218.125 511.8984375 C219 514 219 514 219 517 C214.67687119 517.17359665 210.35560755 517.30031009 206.0300293 517.38452148 C204.5602687 517.41963522 203.09075112 517.46734162 201.62182617 517.52807617 C189.47239447 518.017674 189.47239447 518.017674 185.97070312 515.59741211 C184.6196767 513.77108902 183.78712489 512.12504258 183 510 C182.58492187 509.13761719 182.16984375 508.27523438 181.7421875 507.38671875 C178.19059197 496.33197772 177.41730374 484.80343585 176.32543945 473.29394531 C176.23994377 471.03968556 176.23994377 471.03968556 175 470 C172.32941149 469.85884839 169.67567762 469.95752893 167 470 C166.97498284 474.76480746 166.95699243 479.52957534 166.94506836 484.29443359 C166.94008898 485.91000028 166.93330306 487.52556258 166.92456055 489.14111328 C166.8752684 498.49502388 167.04861051 507.68087775 168 517 C162.72 517 157.44 517 152 517 C152.99 509.08 152.99 509.08 154 501 C152.22625 502.155 150.4525 503.31 148.625 504.5 C143.25 508 143.25 508 141 508 C141.5053125 508.56589844 142.010625 509.13179687 142.53125 509.71484375 C143.1809375 510.44832031 143.830625 511.18179687 144.5 511.9375 C145.1496875 512.66839844 145.799375 513.39929688 146.46875 514.15234375 C148 516 148 516 148 517 C146.71609375 516.89558594 145.4321875 516.79117188 144.109375 516.68359375 C130.48765211 515.92906796 121.12545536 518.61800512 109.12695312 524.90185547 C72.00872817 544.06597115 28.87719975 547.72034999 -12.12109375 547.23828125 C-12.90007523 547.23069794 -13.6790567 547.22311462 -14.48164368 547.21530151 C-19.38964831 547.13163193 -24.13854467 546.68455189 -29 546 C-29.28875 544.948125 -29.5775 543.89625 -29.875 542.8125 C-30.84633262 539.2196553 -30.84633262 539.2196553 -31.9765625 536.7890625 C-33.32758398 533.10727115 -33.8890446 529.42628934 -34.5 525.5625 C-35.3042952 520.50251099 -36.33741485 515.86240181 -38 511 C-38.45458184 508.79915867 -38.86701765 506.58942357 -39.25 504.375 C-40.88789712 495.21038906 -42.87099134 486.12249269 -44.84277344 477.02490234 C-46.67110314 468.58218194 -48.424524 460.13429637 -50 451.640625 C-50.165 450.75246094 -50.33 449.86429688 -50.5 448.94921875 C-50.83613207 447.13463079 -51.16941995 445.31951388 -51.5 443.50390625 C-52.17060674 439.91511239 -52.83672616 436.4809959 -54.01171875 433.01953125 C-55.4648185 428.57982332 -56.07467831 424.04253831 -56.8125 419.4375 C-58.42195443 409.76295942 -60.48151393 400.27553754 -62.8515625 390.76171875 C-64.57366009 383.77769625 -65.90339461 376.72904737 -67.08984375 369.63647461 C-68.16086473 363.2472027 -69.44656218 357.06722099 -71.25390625 350.83984375 C-72.15197697 347.42153268 -72.80783115 343.975247 -73.4375 340.5 C-74.56613945 334.27398693 -75.77233087 328.06973119 -77.0625 321.875 C-77.22484131 321.08158203 -77.38718262 320.28816406 -77.55444336 319.47070312 C-78.24349603 316.18676698 -78.97227315 313.07927678 -80.08203125 309.90625 C-81.17686949 306.44003872 -81.41982903 303.24968706 -81.625 299.625 C-81.69976563 298.37976563 -81.77453125 297.13453125 -81.8515625 295.8515625 C-81.90054687 294.91054688 -81.94953125 293.96953125 -82 293 C-80.60427948 292.97263293 -79.20839779 292.95344011 -77.8125 292.9375 C-77.03519531 292.92589844 -76.25789063 292.91429687 -75.45703125 292.90234375 C-72.87761706 293.00486419 -70.52200033 293.46914924 -68 294 C-68.59104746 289.53982672 -69.20023271 285.08230585 -69.8125 280.625 C-69.97814453 279.37332031 -70.14378906 278.12164063 -70.31445312 276.83203125 C-71.20836967 270.38908557 -72.28472497 264.24856519 -74.32299805 258.06396484 C-74.98082306 256.05846444 -75.51218239 254.05271795 -76 252 C-73.14420251 252.47596625 -70.28857069 252.95272013 -67.43359375 253.43359375 C-65.24076232 253.79532362 -63.04555432 254.14310772 -60.84765625 254.47265625 C-56.23383259 255.17927789 -51.84479561 255.93940956 -47.4375 257.5 C-36.98165423 261.19802804 -24.00663682 263.65752047 -13.5625 259 C-6.97774074 255.20521179 -2.81115667 249.31551843 -0.4765625 242.12890625 C1.14629307 234.87926457 0.41178712 229.54884464 -3.484375 223.234375 C-4.54356351 221.67289091 -5.61776236 220.12153058 -6.703125 218.578125 C-7.25484375 217.78921875 -7.8065625 217.0003125 -8.375 216.1875 C-8.89835937 215.47980469 -9.42171875 214.77210938 -9.9609375 214.04296875 C-11 212 -11 212 -10 208 C-5.05 207.01 -5.05 207.01 0 206 C-0.42907522 200.25039205 -0.91580428 196.90667501 -4 192 C-3.83324331 189.24851463 -3.15027749 188.179177 -1.375 186.0625 C0.21486347 184.10945444 0.21486347 184.10945444 -0.06640625 181.8125 C-1.62188584 177.12653637 -4.9766456 173.80240189 -8.13867188 170.08398438 C-8.63044922 169.48779297 -9.12222656 168.89160156 -9.62890625 168.27734375 C-10.08338135 167.74359131 -10.53785645 167.20983887 -11.00610352 166.65991211 C-12 165 -12 165 -12 161 C-11.38253906 160.85304688 -10.76507812 160.70609375 -10.12890625 160.5546875 C-2.52627586 158.54120548 4.08615965 155.59944984 9.125 149.375 C10.17543029 146.52383206 10.24588212 145.75619636 9 143 C6.87247265 141.4258073 4.8309186 140.08509106 2.5625 138.75 C1.26589576 137.94646141 -0.02836985 137.13913734 -1.3203125 136.328125 C-1.95485352 135.93044922 -2.58939453 135.53277344 -3.24316406 135.12304688 C-11.07480553 130.11671687 -17.55154248 123.63554391 -24.125 117.125 C-24.89690674 116.36251953 -25.66881348 115.60003906 -26.46411133 114.81445312 C-27.17978271 114.09451172 -27.8954541 113.37457031 -28.6328125 112.6328125 C-29.28137207 111.98199707 -29.92993164 111.33118164 -30.59814453 110.66064453 C-32 109 -32 109 -32 107 C-26.72 107 -21.44 107 -16 107 C-16 106.34 -16 105.68 -16 105 C-19.3 105 -22.6 105 -26 105 C-26 104.34 -26 103.68 -26 103 C-24.52138826 101.89922265 -22.9895273 100.86959275 -21.4375 99.875 C-16.23559075 96.33563277 -10.23356779 92.03905339 -8.31640625 85.76171875 C-8.21199219 85.18035156 -8.10757812 84.59898437 -8 84 C-11.57141058 86.0120623 -14.50085995 88.212067 -17.5 91 C-25.03030303 98 -25.03030303 98 -29 98 C-27.68386288 94.47149904 -26.11613059 91.38053066 -24.125 88.1875 C-20.11615751 81.59388072 -16.90711596 75.29814448 -14.7109375 67.8828125 C-14 66 -14 66 -12 64 C-8.95870252 63.44862808 -5.91812559 63.10851009 -2.84765625 62.7578125 C0.05622219 62.24379874 0.05622219 62.24379874 1.7421875 60.2265625 C8.7937414 47.74399815 9.16060947 31.47214787 6.19921875 17.6171875 C5.27775199 14.32267699 4.24047316 11.18623207 3 8 C2.4529949 6.54220326 1.90747074 5.08385013 1.36328125 3.625 C0.91339844 2.42875 0.46351562 1.2325 0 0 Z " fill="#FEF62E" transform="translate(1261,434)"/>
<path d="M0 0 C4.99935491 1.12881362 10.08293096 1.79480795 15.15820312 2.48730469 C14.82820313 4.79730469 14.49820312 7.10730469 14.15820312 9.48730469 C10.44792934 8.99911077 7.11564391 8.14214147 3.59570312 6.92480469 C-3.61654739 4.70984727 -11.38521497 4.11659117 -18.46679688 6.92480469 C-19.25054688 7.44042969 -20.03429688 7.95605469 -20.84179688 8.48730469 C-21.83179688 8.81730469 -22.82179688 9.14730469 -23.84179688 9.48730469 C-23.34679688 10.97230469 -23.34679688 10.97230469 -22.84179688 12.48730469 C-18.78715411 11.99616897 -18.78715411 11.99616897 -15.05664062 10.46777344 C-8.06504456 7.37272827 1.54292437 9.09774799 8.58398438 11.44042969 C10.15820312 12.48730469 10.15820312 12.48730469 10.97851562 14.39355469 C11.25542099 17.62010414 9.71923863 19.7398822 8.15820312 22.48730469 C6.50820312 22.48730469 4.85820313 22.48730469 3.15820312 22.48730469 C2.97257812 23.27105469 2.78695313 24.05480469 2.59570312 24.86230469 C0.5116231 30.11781084 -2.80980671 35.45531452 -6.84179688 39.48730469 C-6.80692619 46.35683041 -3.78841152 49.50726629 0.90820312 54.23730469 C1.58415527 54.9346875 2.26010742 55.63207031 2.95654297 56.35058594 C12.79181696 66.35865111 22.96823598 74.5244593 35.15820312 81.48730469 C34.52979614 85.76475677 33.55572165 87.6187406 30.02148438 90.28417969 C23.37669556 94.57473515 18.04928952 95.98832605 10.15820312 95.48730469 C11.52470564 97.84679903 12.89872278 100.20086726 14.28320312 102.54980469 C14.68974121 103.23993652 15.0962793 103.93006836 15.51513672 104.64111328 C17.69080059 108.26664711 19.85936029 111.52985717 22.78320312 114.61230469 C25.15820312 117.48730469 25.15820312 117.48730469 25.22070312 120.23730469 C24.09633979 122.61830939 23.31362141 123.97052886 21.15820312 125.48730469 C19.83820313 125.48730469 18.51820313 125.48730469 17.15820312 125.48730469 C18.42033354 129.27369593 19.81165664 129.52835065 23.15820312 131.48730469 C25.44833966 134.92250949 25.33663286 136.47263569 25.15820312 140.48730469 C21.85820313 141.80730469 18.55820313 143.12730469 15.15820312 144.48730469 C14.60914074 149.87296076 16.22402347 152.67906507 19.40820312 156.79980469 C24.90462757 164.34490619 29.39689323 170.88745635 28.15820312 180.48730469 C26.00824399 186.00241725 23.27602112 189.01146803 17.91601562 191.59667969 C4.72427832 195.8569008 -10.02499836 190.42587932 -22.90820312 187.20507812 C-26.558914 186.31184494 -30.22059993 185.54455211 -33.90429688 184.79980469 C-35.88422862 184.36578024 -37.86351444 183.92878579 -39.84179688 183.48730469 C-41.08703125 183.24367188 -41.08703125 183.24367188 -42.35742188 182.99511719 C-49.62711626 181.19005702 -53.30711541 176.16551452 -57.84179688 170.48730469 C-59.31938453 168.6526985 -60.79855448 166.81936558 -62.27929688 164.98730469 C-63.38724609 163.61638672 -63.38724609 163.61638672 -64.51757812 162.21777344 C-67.57779876 158.62265709 -70.88529287 155.33943227 -74.28710938 152.06933594 C-76.98693653 149.34061155 -79.48618763 146.49023681 -81.99902344 143.59057617 C-86.86720369 138.03422047 -91.99421754 132.70685202 -97.07910156 127.34960938 C-98.55333961 125.79206258 -100.01547675 124.22307385 -101.47460938 122.65136719 C-110.20910778 113.50235022 -120.41673006 106.12430102 -131.20898438 99.58886719 C-132.30452637 98.90904785 -133.40006836 98.22922852 -134.52880859 97.52880859 C-136.70312343 96.18896919 -138.90001984 94.88497042 -141.11962891 93.62158203 C-148.41219044 89.09350561 -148.41219044 89.09350561 -149.61376953 84.60107422 C-149.76944344 78.52597142 -148.56884618 72.93590515 -146.21679688 67.36230469 C-145.80965454 66.34511353 -145.80965454 66.34511353 -145.39428711 65.30737305 C-141.67347413 56.28308538 -136.54456321 47.63922546 -129.84179688 40.48730469 C-129.18179687 40.48730469 -128.52179688 40.48730469 -127.84179688 40.48730469 C-127.63039063 39.92269531 -127.41898438 39.35808594 -127.20117188 38.77636719 C-125.3483302 35.65635219 -122.99587509 34.02230316 -120.09179688 31.86230469 C-119.06570313 31.08628906 -118.03960938 30.31027344 -116.98242188 29.51074219 C-110.89140089 25.58642767 -104.9613442 24.47321351 -97.84179688 25.48730469 C-91.34732088 27.68354984 -86.54413649 30.70239904 -82.84179688 36.48730469 C-81.95005767 38.82753033 -81.3825813 41.02919367 -80.84179688 43.48730469 C-81.56625 42.99359375 -82.29070312 42.49988281 -83.03710938 41.99121094 C-84.00390625 41.35054687 -84.97070312 40.70988281 -85.96679688 40.04980469 C-86.918125 39.41171875 -87.86945313 38.77363281 -88.84960938 38.11621094 C-95.86486453 34.29720128 -105.06624187 34.49699518 -112.65429688 36.48730469 C-117.07973586 39.26405072 -119.85775426 41.5654867 -121.84179688 46.48730469 C-123.43592625 57.21825612 -122.34133144 65.56716157 -115.84179688 74.48730469 C-115.1534375 75.46054687 -114.46507812 76.43378906 -113.75585938 77.43652344 C-109.42271066 83.37369738 -104.80464898 89.08230512 -100.11132812 94.73730469 C-98.52598091 96.65827619 -96.96249458 98.59740613 -95.41601562 100.54980469 C-94.62839844 101.53980469 -93.84078125 102.52980469 -93.02929688 103.54980469 C-92.32160156 104.44828125 -91.61390625 105.34675781 -90.88476562 106.27246094 C-88.93215963 108.38933971 -87.48979021 109.4340579 -84.84179688 110.48730469 C-87.43768549 105.62152277 -90.10552406 101.85866577 -93.96679688 97.86230469 C-119.58626246 70.74851424 -119.58626246 70.74851424 -119.21679688 56.89355469 C-118.33028957 51.20513282 -115.15268672 46.25266864 -110.90429688 42.42480469 C-105.50347226 39.04044516 -98.91834769 39.63173711 -92.84179688 40.48730469 C-87.79609476 42.20180037 -83.39068866 44.45370963 -79.84179688 48.48730469 C-77.14818095 57.45004806 -76.93428529 66.95835492 -76.23999023 76.24829102 C-75.28505437 88.84247465 -74.09922283 101.51020598 -69.84179688 113.48730469 C-66.43858754 114.16403916 -66.43858754 114.16403916 -62.84179688 114.48730469 C-57.07520751 108.72071533 -57.5357674 97.86796951 -57.24414062 90.18652344 C-57.2032431 89.1580983 -57.16234558 88.12967316 -57.12020874 87.07008362 C-56.80524786 77.95680617 -56.79871063 68.8502257 -56.84960938 59.73339844 C-56.85340418 59.01002541 -56.85719898 58.28665237 -56.86110878 57.54135895 C-56.89789077 50.80161902 -56.94394716 44.06199877 -57.01318359 37.32250977 C-57.05092068 33.58604923 -57.07386047 29.84973799 -57.08749008 26.11311531 C-57.09547825 24.70935851 -57.10899162 23.30562069 -57.12842178 21.90197563 C-57.31384918 8.32467615 -57.31384918 8.32467615 -53.84179688 2.48730469 C-51.86132812 0.74511719 -51.86132812 0.74511719 -49.65429688 -0.38769531 C-48.93886719 -0.77699219 -48.2234375 -1.16628906 -47.48632812 -1.56738281 C-32.68823218 -6.85710101 -14.76708082 -3.54642492 0 0 Z " fill="#FCFDFA" transform="translate(1226.841796875,494.5126953125)"/>
<path d="M0 0 C10.68215465 1.27913699 20.66424714 5.28583191 30.5 9.5 C31.14573975 9.77215332 31.79147949 10.04430664 32.45678711 10.32470703 C37.09351138 12.36800925 40.98818085 14.89807798 45 18 C45 18.33 45 18.66 45 19 C41.37 19.33 37.74 19.66 34 20 C33.67 21.32 33.34 22.64 33 24 C35.475 24.99 35.475 24.99 38 26 C37.33333333 28.66666667 36.66666667 31.33333333 36 34 C37.98567708 34.1953125 39.97135417 34.390625 41.95703125 34.5859375 C44 35 44 35 47 37 C50.08365871 37.2502157 50.08365871 37.2502157 53 37 C54.28612676 35.94021067 54.28612676 35.94021067 54.09765625 33.49609375 C54.08605469 32.48675781 54.07445312 31.47742188 54.0625 30.4375 C54.05347656 29.42558594 54.04445313 28.41367187 54.03515625 27.37109375 C54.02355469 26.58863281 54.01195312 25.80617188 54 25 C57.78315109 26.66312439 60.89525282 29.09246055 64.125 31.625 C64.70483643 32.07810547 65.28467285 32.53121094 65.88208008 32.99804688 C67.05366392 33.91450303 68.22433318 34.83212968 69.39404297 35.75097656 C70.72810638 36.78853637 72.08235675 37.80007811 73.44140625 38.8046875 C85.5461555 47.94114171 96.13903541 59.52658067 106 71 C108.98078151 74.35080956 111.98799944 77.67723748 115 81 C115.44956055 81.49612793 115.89912109 81.99225586 116.36230469 82.50341797 C117.78093696 84.06685872 119.20232192 85.62774032 120.625 87.1875 C121.08994873 87.69845215 121.55489746 88.2094043 122.03393555 88.73583984 C125.10380886 92.08726797 128.27357248 95.27415043 131.66015625 98.3046875 C133 100 133 100 135 106 C130.38 106 125.76 106 121 106 C123.61662187 110.36103644 125.85897361 114.03469216 130 117 C132.76675733 117.43077145 132.76675733 117.43077145 135 116 C136.37466625 113.52363988 136.37466625 113.52363988 137 111 C139.88044758 112.01208984 140.82676183 112.6396372 142.17260742 115.43920898 C142.48045166 116.44798096 142.7882959 117.45675293 143.10546875 118.49609375 C143.62077148 120.17155273 143.62077148 120.17155273 144.14648438 121.88085938 C144.66178711 123.64139648 144.66178711 123.64139648 145.1875 125.4375 C145.54263672 126.57638672 145.89777344 127.71527344 146.26367188 128.88867188 C148.38572742 135.93937255 149.67687985 142.64086873 150 150 C114.63724892 150.51181893 87.24015388 146.17220744 56 129 C54.88109375 128.38898438 53.7621875 127.77796875 52.609375 127.1484375 C29.05858211 113.86176023 11.47213811 96.76066669 -3 74 C-3.58652344 73.09378906 -4.17304687 72.18757812 -4.77734375 71.25390625 C-6.8227856 67.89394221 -8 65.85482787 -8 61.875 C-7 59 -7 59 -5.5078125 56.0078125 C-3.4249289 51.15998317 -3.22226753 46.21407638 -2.875 41 C-2.79644775 39.95996826 -2.71789551 38.91993652 -2.63696289 37.84838867 C-2.02390847 29.37471346 -1.62177674 20.89131454 -1.34130859 12.40039062 C-1.3098877 11.50126953 -1.2784668 10.60214844 -1.24609375 9.67578125 C-1.22216553 8.89114502 -1.1982373 8.10650879 -1.17358398 7.2980957 C-0.98521945 4.80431888 -0.53576188 2.44075301 0 0 Z " fill="#FDFCFA" transform="translate(1035,570)"/>
<path d="M0 0 C0.94875 0.185625 1.8975 0.37125 2.875 0.5625 C3.57625 0.706875 4.2775 0.85125 5 1 C4.55356434 7.58492601 3.06664589 13.26362127 1.046875 19.53515625 C-1.52193079 28.03713659 -3.07667867 36.82046311 -4.375 45.59765625 C-5.36320251 49.39605967 -6.80102478 52.1412745 -10.0234375 54.44921875 C-10.79945313 54.85785156 -11.57546875 55.26648438 -12.375 55.6875 C-17.49975626 58.56640719 -21.98543213 61.96211953 -26.53271484 65.66088867 C-29.27181721 67.84752802 -31.46503095 69.54745565 -35 70 C-34.875 68.125 -34.875 68.125 -34 66 C-30.9375 64.75 -30.9375 64.75 -28 64 C-28 63.34 -28 62.68 -28 62 C-29.65 61.34 -31.3 60.68 -33 60 C-33.22786458 57.94921875 -33.45572917 55.8984375 -33.68359375 53.84765625 C-33.81886614 51.98859771 -33.81886614 51.98859771 -35 51 C-37.87237733 50.41557037 -37.87237733 50.41557037 -41 51 C-42.34331654 52.99330842 -43.67594012 54.99384866 -45 57 C-47.30988315 57.74386068 -49.64315944 58.42190703 -52 59 C-52.33 59.99 -52.66 60.98 -53 62 C-52.195625 62.2475 -51.39125 62.495 -50.5625 62.75 C-48 64 -48 64 -47 65.9375 C-47 68 -47 68 -48.375 69.5625 C-48.91125 70.036875 -49.4475 70.51125 -50 71 C-50.495 72.485 -50.495 72.485 -51 74 C-49.453125 73.505 -49.453125 73.505 -47.875 73 C-44.51573291 72.0284808 -41.50893798 71.82883229 -38 72 C-42.58987613 77.57342101 -48.57766254 79.95223145 -55 83 C-57.77724177 84.36222897 -60.54503664 85.74303883 -63.3125 87.125 C-63.96968018 87.44960205 -64.62686035 87.7742041 -65.30395508 88.10864258 C-68.51188931 89.7034997 -71.65649043 91.35502646 -74.75390625 93.15625 C-77.66946722 94.81226056 -80.49860869 95.97783312 -83.65234375 97.08984375 C-86.57544128 98.22309121 -89.36144746 99.58058668 -92.1875 100.9375 C-103.39750265 106.12922934 -113.64642038 108.70738174 -126 109 C-126.69786621 109.02046387 -127.39573242 109.04092773 -128.11474609 109.06201172 C-144.49124379 109.4999247 -162.86770646 109.42152903 -177 100 C-175.47332378 95.02416641 -172.52292341 91.80166627 -169.125 88 C-168.54057129 87.33774414 -167.95614258 86.67548828 -167.35400391 85.99316406 C-165.57763919 83.98785421 -163.79043697 81.99274623 -162 80 C-161.51208984 79.45279297 -161.02417969 78.90558594 -160.52148438 78.34179688 C-148.0396792 64.37700495 -134.99318565 50.28544268 -120 39 C-119.05253906 38.25878906 -118.10507812 37.51757812 -117.12890625 36.75390625 C-92.29764685 17.60574393 -92.29764685 17.60574393 -82 17 C-79.41073669 19.58926331 -79.62601957 21.02705279 -79.375 24.625 C-79.26285156 26.12933594 -79.26285156 26.12933594 -79.1484375 27.6640625 C-79.09945312 28.43492187 -79.05046875 29.20578125 -79 30 C-77.83984375 29.87431641 -77.83984375 29.87431641 -76.65625 29.74609375 C-70.53598436 29.14770144 -65.0628867 28.95065422 -59 30 C-59.36453952 26.71914435 -60.00388818 25.99675985 -62.625 23.8125 C-65 21 -65 21 -65.0703125 18.75 C-64.86080063 17.15566579 -64.60458226 15.56660727 -64.296875 13.98828125 C-63.79512406 11.93108929 -63.79512406 11.93108929 -65 10 C-51.51734311 5.56998417 -38.18065672 2.38947373 -24.125 0.3125 C-23.24497314 0.18085449 -22.36494629 0.04920898 -21.45825195 -0.08642578 C-14.12545607 -1.11937058 -7.32521698 -1.4650434 0 0 Z " fill="#FCFCFB" transform="translate(989,555)"/>
<path d="M0 0 C5.94 0 11.88 0 18 0 C17.34 1.98 16.68 3.96 16 6 C15.72373872 9.36203242 15.72373872 9.36203242 15.8125 12.75 C15.81894531 13.87921875 15.82539062 15.0084375 15.83203125 16.171875 C15.81092781 18.94968753 15.81092781 18.94968753 17 21 C20.33945263 21.40891257 22.94375208 21.61955072 25.91796875 19.875 C31.30926413 15.46080506 33.87083084 11.08302121 34.6875 4.125 C34.790625 2.76375 34.89375 1.4025 35 0 C39.95 0 44.9 0 50 0 C47.42032552 7.73902343 44.58259287 15.12247517 38.125 20.375 C34.93292213 23.3755532 34.43170896 25.58182925 34.25 29.9375 C35.15649475 45.43678283 42.16079982 62.89642908 53 74 C53.97978844 71.06063467 54.13711293 69.08545575 54.17578125 66.01953125 C54.73130094 39.42375598 60.90204374 19.09795626 80 0 C82.53049402 -0.07313567 85.03304837 -0.09247527 87.5625 -0.0625 C88.62887695 -0.05573242 88.62887695 -0.05573242 89.71679688 -0.04882812 C91.47790013 -0.03700864 93.23896036 -0.01907263 95 0 C94.96302002 0.74378906 94.92604004 1.48757813 94.88793945 2.25390625 C94.6046133 13.00918929 96.07076637 23.33493869 97.71606445 33.94042969 C98.18622563 36.99172947 98.63012964 40.04609143 99.07226562 43.1015625 C100.55330386 52.99323053 102.30097193 62.25053284 106.0402832 71.55078125 C107 74 107 74 107 76 C101.39 76 95.78 76 90 76 C90.04125 74.1025 90.0825 72.205 90.125 70.25 C90.07778383 59.39027984 89.33126828 50.45516554 82 42 C77.68166282 37.66067781 77.68166282 37.66067781 72.0546875 35.90234375 C71.33539062 35.91394531 70.61609375 35.92554688 69.875 35.9375 C67.956875 35.9684375 67.956875 35.9684375 66 36 C62.68552855 47.3934956 62.24195396 59.94549395 67.125 70.8984375 C68 73 68 73 68 76 C63.67687119 76.17359665 59.35560755 76.30031009 55.0300293 76.38452148 C53.5602687 76.41963522 52.09075112 76.46734162 50.62182617 76.52807617 C38.47239447 77.017674 38.47239447 77.017674 34.97070312 74.59741211 C33.6196767 72.77108902 32.78712489 71.12504258 32 69 C31.58492187 68.13761719 31.16984375 67.27523437 30.7421875 66.38671875 C27.19059197 55.33197772 26.41730374 43.80343585 25.32543945 32.29394531 C25.23994377 30.03968556 25.23994377 30.03968556 24 29 C21.32941149 28.85884839 18.67567762 28.95752893 16 29 C15.97498284 33.76480746 15.95699243 38.52957534 15.94506836 43.29443359 C15.94008898 44.91000028 15.93330306 46.52556258 15.92456055 48.14111328 C15.8752684 57.49502388 16.04861051 66.68087775 17 76 C11.72 76 6.44 76 1 76 C1.33 74.35 1.66 72.7 2 71 C2.09410757 68.96286062 2.13795218 66.92308787 2.14526367 64.88378906 C2.15164352 63.67192932 2.15802338 62.46006958 2.16459656 61.21148682 C2.16570938 59.90935242 2.1668222 58.60721802 2.16796875 57.265625 C2.17118617 55.90427618 2.1745506 54.5429277 2.17805481 53.18157959 C2.18403241 50.33035481 2.18589621 47.47916028 2.18530273 44.62792969 C2.18520139 40.99570879 2.19883104 37.36368458 2.21607494 33.73151016 C2.22726161 30.91916027 2.22921988 28.10685685 2.22869301 25.294487 C2.23042897 23.31107633 2.24122975 21.32768017 2.25224304 19.34429932 C2.23521819 12.56857418 1.78743675 6.54404637 0 0 Z " fill="#EA4263" transform="translate(1412,875)"/>
<path d="M0 0 C4.94378949 -0.09975053 9.88697822 -0.17187902 14.83154297 -0.21972656 C16.50938131 -0.23969699 18.18715136 -0.26688332 19.86474609 -0.30175781 C39.00930047 -0.68943789 39.00930047 -0.68943789 46 4 C48.50304378 7.75456567 48.45280074 9.54745934 48 14 C45.92875805 17.8465922 43.81061201 20.78738658 40 23 C39.01 23 38.02 23 37 23 C37 23.66 37 24.32 37 25 C37.73605469 25.10699219 38.47210937 25.21398437 39.23046875 25.32421875 C43.98890247 26.48530342 47.1790161 29.02064108 50 33 C51.78934041 41.0633568 49.81716975 50.08531134 45.74609375 57.1875 C38.87242331 67.07659534 28.64882631 72.1756382 17 74.6328125 C13.84139059 75.01941313 10.8059419 75.0978438 7.625 75.0625 C6.56539062 75.05347656 5.50578125 75.04445313 4.4140625 75.03515625 C3.21910156 75.01775391 3.21910156 75.01775391 2 75 C2.16200394 74.29801483 2.32400787 73.59602966 2.49092102 72.87277222 C3.02371504 69.86617416 3.13400756 67.0880569 3.14526367 64.03564453 C3.15164352 62.85737091 3.15802338 61.67909729 3.16459656 60.46511841 C3.16570938 59.20045746 3.1668222 57.93579651 3.16796875 56.6328125 C3.17129715 55.32472626 3.17462555 54.01664001 3.17805481 52.66891479 C3.18403024 49.90345433 3.18589634 47.13802505 3.18530273 44.37255859 C3.1852012 40.84327081 3.19885126 37.3141846 3.21607494 33.78494453 C3.22992188 30.40089773 3.22928504 27.01688723 3.23046875 23.6328125 C3.23765427 22.37220001 3.24483978 21.11158752 3.25224304 19.81277466 C3.23665629 13.81149389 3.0875846 8.64761414 1 3 C0.67 2.01 0.34 1.02 0 0 Z " fill="#EA405B" transform="translate(1353,784)"/>
<path d="M0 0 C6.27 0 12.54 0 19 0 C19.60328125 2.08699219 20.2065625 4.17398438 20.828125 6.32421875 C21.42698492 8.39306078 22.02621981 10.46179386 22.62548828 12.53051758 C23.03505801 13.94511825 23.44425084 15.35982811 23.85302734 16.7746582 C26.48336966 25.87745219 29.17892986 34.95409269 32 44 C34.29383426 37.22339819 36.42979516 30.41044833 38.5 23.5625 C38.94279297 22.10360352 38.94279297 22.10360352 39.39453125 20.61523438 C40.5557557 16.78626301 41.71681889 12.95752238 42.8515625 9.12060547 C43.11710937 8.2235791 43.38265625 7.32655273 43.65625 6.40234375 C44.00913086 5.20146118 44.00913086 5.20146118 44.36914062 3.97631836 C45 2 45 2 46 0 C52.27 0 58.54 0 65 0 C64.01 1.98 63.02 3.96 62 6 C60.92330381 9.21311331 60.87335011 12.18018734 60.87060547 15.55957031 C60.86587723 17.23215912 60.86587723 17.23215912 60.86105347 18.9385376 C60.8630777 20.13960144 60.86510193 21.34066528 60.8671875 22.578125 C60.86623077 23.81866638 60.86527405 25.05920776 60.86428833 26.33734131 C60.86343347 29.63537342 60.86745548 32.93335843 60.87304688 36.23138428 C60.87499226 38.24199949 60.87306093 40.25257081 60.86962891 42.26318359 C60.86342757 46.1390178 60.86420758 50.01478804 60.8671875 53.890625 C60.86516327 55.08359192 60.86313904 56.27655884 60.86105347 57.50567627 C60.87762233 63.4330945 61.09405627 69.13970462 62 75 C57.38 75 52.76 75 48 75 C48 57.18 48 39.36 48 21 C46.35 26.94 44.7 32.88 43 39 C41.0625 44.3125 41.0625 44.3125 40.10546875 46.796875 C38.16510989 52.41911621 36.65287637 58.17588991 35.10571289 63.91723633 C34.86199951 64.8017749 34.61828613 65.68631348 34.3671875 66.59765625 C34.15175293 67.39695557 33.93631836 68.19625488 33.71435547 69.01977539 C33 71 33 71 31 73 C23.11121926 55.76828539 18.37790952 37.12643027 13 19 C12.97491166 24.40364256 12.95696028 29.80724976 12.94506836 35.2109375 C12.9401005 37.04167269 12.93332393 38.87240405 12.92456055 40.703125 C12.87106201 52.18328233 13.1022739 63.55120897 14 75 C10.04 75 6.08 75 2 75 C2.33 73.68 2.66 72.36 3 71 C3.10156378 68.9291207 3.14834398 66.85531132 3.16113281 64.78198242 C3.17074036 63.52355026 3.1803479 62.2651181 3.19024658 60.96855164 C3.1950952 59.59752586 3.19937387 58.22649797 3.203125 56.85546875 C3.20888187 55.44305928 3.21463953 54.03064982 3.22039795 52.61824036 C3.23089072 49.65849444 3.23674453 46.69877555 3.24023438 43.73901367 C3.24571305 39.95963843 3.26973459 36.18062453 3.29820633 32.40136242 C3.31689644 29.48357625 3.3220417 26.565876 3.32357025 23.64803505 C3.32658336 22.25546609 3.33456628 20.86289817 3.34775543 19.47038841 C3.36494638 17.51573278 3.36107216 15.56092692 3.35644531 13.60620117 C3.36009094 12.49685715 3.36373657 11.38751312 3.36749268 10.24455261 C3.07152459 6.23898255 3.07152459 6.23898255 0 0 Z " fill="#EA4262" transform="translate(1530,784)"/>
<path d="M0 0 C4.98043609 -0.07461471 9.96054089 -0.12881987 14.94140625 -0.16479492 C16.63287022 -0.17980505 18.32429578 -0.20021963 20.015625 -0.22631836 C22.45843024 -0.26304686 24.9007173 -0.27980411 27.34375 -0.29296875 C28.46299866 -0.31619453 28.46299866 -0.31619453 29.6048584 -0.33988953 C35.94292913 -0.3418838 41.16557094 1.08676039 46.5 4.6875 C48.71623618 8.10419744 48.80020593 11.12531865 48 15 C45.46856551 21.18297274 41.94888975 24.20052247 36 27 C34.68434291 42.86097711 41.64690863 57.53610271 51.375 69.6875 C52.04273438 70.47511719 52.71046875 71.26273438 53.3984375 72.07421875 C55 74 55 74 56 76 C53.06097651 76.13481759 50.12810441 76.23399416 47.1875 76.3125 C46.35412109 76.35439453 45.52074219 76.39628906 44.66210938 76.43945312 C42.34594443 76.48596246 40.27060067 76.46389853 38 76 C36.046875 73.78125 36.046875 73.78125 35 71 C34.66097656 70.23042969 34.32195312 69.46085938 33.97265625 68.66796875 C29.73577603 57.12110635 26.66665933 45.70489834 26.2734375 33.37890625 C26.18320313 32.59386719 26.09296875 31.80882812 26 31 C23.26752652 29.63376326 21.01801098 29.871574 18 30 C16.00995304 31.99004696 16.8360519 35.93181183 16.83203125 38.65625 C16.82870285 39.43254761 16.82537445 40.20884521 16.82194519 41.00866699 C16.81686855 42.65974331 16.81453709 44.31082995 16.81469727 45.96191406 C16.8125331 48.46176754 16.79444831 50.96116353 16.77539062 53.4609375 C16.7724522 55.06770683 16.77047041 56.67447825 16.76953125 58.28125 C16.76234573 59.01911743 16.75516022 59.75698486 16.74775696 60.51721191 C16.77097029 65.92580484 17.69185282 70.75056123 19 76 C13.39 76 7.78 76 2 76 C2.33 74.35 2.66 72.7 3 71 C3.09910395 68.91645891 3.1480664 66.83024055 3.16113281 64.74438477 C3.17074036 63.5028212 3.1803479 62.26125763 3.19024658 60.98207092 C3.19509432 59.63518458 3.19937321 58.28829609 3.203125 56.94140625 C3.20736607 55.91694051 3.20736607 55.91694051 3.21169281 54.87177849 C3.22664245 51.25981132 3.23589945 47.64788369 3.24023438 44.03588867 C3.24572295 40.31585497 3.26977077 36.59618654 3.29820633 32.87626743 C3.31687475 30.00484675 3.32204046 27.13351351 3.32357025 24.26203728 C3.32658618 22.89097019 3.33457877 21.51990426 3.34775543 20.14889717 C3.36490747 18.22767575 3.36107769 16.30630217 3.35644531 14.38500977 C3.36191376 12.74883446 3.36191376 12.74883446 3.36749268 11.0796051 C2.94369519 7.52816314 1.69316013 5.12335278 0 2 C0 1.34 0 0.68 0 0 Z " fill="#EA4364" transform="translate(1525,875)"/>
<path d="M0 0 C4.96210007 -0.09961748 9.9236054 -0.1718178 14.88647461 -0.21972656 C16.57114821 -0.23971886 18.25575351 -0.26692223 19.94018555 -0.30175781 C39.09693162 -0.68773077 39.09693162 -0.68773077 47.125 5.6875 C48.61274369 9.61939405 48.29291227 13.03030453 47 17 C44.08879457 21.46182138 40.91166088 24.84233882 36 27 C35.06180757 45.76384856 44.31745583 61.980947 56 76 C49.73 76 43.46 76 37 76 C31.01754326 63.81351406 27.66749183 51.21099109 26.63232422 37.71313477 C26.43204259 33.3987306 26.43204259 33.3987306 24 30 C21 29.66666667 21 29.66666667 18 30 C14.51009578 33.48990422 15.69587714 38.65192393 15.67773438 43.36914062 C15.67990967 44.12042236 15.68208496 44.8717041 15.68432617 45.64575195 C15.68744503 47.89780969 15.66418555 50.14849948 15.63867188 52.40039062 C15.60371866 60.72236932 16.34043368 68.03533569 19 76 C13.39 76 7.78 76 2 76 C2.16226074 74.42549072 2.32452148 72.85098145 2.49169922 71.22875977 C3.03258649 65.25389351 3.14488303 59.33592379 3.1328125 53.33984375 C3.13424759 51.73406212 3.13424759 51.73406212 3.13571167 50.09584045 C3.13638738 47.84961894 3.13457598 45.60339541 3.13037109 43.35717773 C3.12500888 39.94315155 3.13033969 36.52925657 3.13671875 33.11523438 C3.13605796 30.91927055 3.13477679 28.7233068 3.1328125 26.52734375 C3.13483673 25.51977524 3.13686096 24.51220673 3.13894653 23.47410583 C3.34422608 11.40531225 3.34422608 11.40531225 0 0 Z " fill="#EA415B" transform="translate(1353,875)"/>
<path d="M0 0 C6.87479754 5.49983803 10.10717679 10.33613618 11.16796875 19.23046875 C11.62760223 26.62796606 10.61449021 31.32563724 5.953125 37.15234375 C-1.16788985 44.13041852 -9.04705736 45.74325679 -18.7265625 45.65625 C-25.97008691 44.80599431 -31.8738915 41.08063384 -36.6875 35.6875 C-37.53798514 34.55433916 -38.37370728 33.40979303 -39.1875 32.25 C-39.80625 31.5075 -40.425 30.765 -41.0625 30 C-43.36236657 24.37810394 -42.9537232 17.80991578 -41.125 12.0625 C-38.49820731 5.9833512 -33.61642764 0.94081247 -28.1875 -2.75 C-18.12366247 -6.49927281 -9.25174279 -5.0793882 0 0 Z " fill="#EA3E5E" transform="translate(1221.1875,557.75)"/>
<path d="M0 0 C5.61 0 11.22 0 17 0 C16.67 1.27875 16.34 2.5575 16 3.875 C14.87348623 8.90835938 14.56111267 13.85583227 15 19 C17.05014613 21.05014613 21.12884588 20.23057975 23.9375 20.25 C24.67935547 20.270625 25.42121094 20.29125 26.18554688 20.3125 C28.59467535 20.36462739 28.59467535 20.36462739 32 20 C34.54005385 16.18991922 34.3610332 14.54901828 34 10 C33.14322507 6.60261502 32.09578031 3.33299844 31 0 C36.94 0 42.88 0 49 0 C48.67475342 1.39420166 48.34950684 2.78840332 48.0144043 4.22485352 C46.80303129 10.31163393 46.72892343 16.21376347 46.76953125 22.40234375 C46.76998947 23.56069229 46.77044769 24.71904083 46.7709198 25.91249084 C46.77392491 28.34881624 46.78175855 30.78514001 46.79418945 33.22143555 C46.81242897 36.92308467 46.81469884 40.62448249 46.81445312 44.32617188 C46.81937029 46.7057313 46.82519948 49.08528905 46.83203125 51.46484375 C46.83314407 52.55788315 46.8342569 53.65092255 46.83540344 54.77708435 C46.87679356 61.57620269 47.29803928 68.23631962 48 75 C42.72 75 37.44 75 32 75 C32.32613281 73.38480469 32.65226562 71.76960937 32.98828125 70.10546875 C34.23883703 62.59440776 34.26825949 55.21367649 34.20581055 47.62329102 C34.18722702 45.27805007 34.18530371 42.93319847 34.18554688 40.58789062 C34.18064197 39.09635072 34.1748182 37.60481349 34.16796875 36.11328125 C34.16685593 35.41237869 34.1657431 34.71147614 34.16459656 33.98933411 C34.41078663 30.7128596 34.41078663 30.7128596 33 28 C30.15664952 27.90013025 27.34302837 27.86122119 24.5 27.875 C23.70207031 27.87113281 22.90414063 27.86726562 22.08203125 27.86328125 C18.2316068 27.4910039 18.2316068 27.4910039 15 29 C14.88638103 31.54945698 14.83581075 34.07071489 14.83203125 36.62109375 C14.82870285 37.39501968 14.82537445 38.16894562 14.82194519 38.96632385 C14.81686794 40.61320399 14.81453711 42.26009447 14.81469727 43.90698242 C14.81253616 46.3958512 14.79446085 48.88425815 14.77539062 51.37304688 C14.74740264 59.51693426 14.95572744 67.05723349 17 75 C11.39 75 5.78 75 0 75 C0.33 72.36 0.66 69.72 1 67 C1.08379364 64.86367503 1.12777117 62.72536939 1.12939453 60.58740234 C1.13254669 59.38610687 1.13569885 58.1848114 1.13894653 56.94711304 C1.1369223 55.67292511 1.13489807 54.39873718 1.1328125 53.0859375 C1.13348749 51.74410993 1.13445913 50.40228248 1.13571167 49.06045532 C1.13717847 46.26164576 1.13506634 43.46286831 1.13037109 40.6640625 C1.12466332 37.08885848 1.12796589 33.51372937 1.13394356 29.93852806 C1.13756731 27.17263226 1.13640244 24.40675405 1.13381577 21.6408577 C1.1328312 19.68556926 1.13585012 17.73028013 1.13894653 15.7749939 C1.13579437 14.58000275 1.13264221 13.3850116 1.12939453 12.15380859 C1.12820114 10.58450089 1.12820114 10.58450089 1.12698364 8.98348999 C1.03871096 5.47805005 1.03871096 5.47805005 0 0 Z " fill="#EA3F5B" transform="translate(1413,784)"/>
<path d="M0 0 C-0.03480469 0.92296875 -0.06960938 1.8459375 -0.10546875 2.796875 C-0.34094557 14.1446151 1.01275357 24.84346251 3 36 C3.18755859 37.06766602 3.37511719 38.13533203 3.56835938 39.23535156 C4.17666395 42.65977168 4.80318256 46.08030789 5.4375 49.5 C5.72693481 51.09207275 5.72693481 51.09207275 6.0222168 52.71630859 C7.26894951 59.22696742 8.99109996 65.37282785 11.21508789 71.61914062 C12 74 12 74 12 76 C6.39 76 0.78 76 -5 76 C-5.00257812 74.62328125 -5.00515625 73.2465625 -5.0078125 71.828125 C-5.20316338 59.17973025 -5.8364161 48.86128029 -15.1875 39.375 C-19.52161103 36.05608615 -24.6998554 35.5558922 -30 35 C-31.87781245 49.25125521 -31.54895588 62.35313235 -27 76 C-31.62 76 -36.24 76 -41 76 C-40.47014843 52.02878417 -39.50552942 31.11965377 -25 11 C-23.93845703 9.44925781 -23.93845703 9.44925781 -22.85546875 7.8671875 C-15.98529355 -1.04239294 -10.64541255 -1.40519446 0 0 Z " fill="#EA425B" transform="translate(1335,875)"/>
<path d="M0 0 C-0.33 0.99 -0.66 1.98 -1 3 C-1.5189502 8.79293245 -0.69292106 14.2150069 0.4375 19.8828125 C1.07070889 23.39184511 1.4757667 26.89430446 1.875 30.4375 C3.65092574 45.53468841 7.19027734 60.30535546 11 75 C5.72 75 0.44 75 -5 75 C-5.0825 72.628125 -5.165 70.25625 -5.25 67.8125 C-5.82756346 57.3315483 -7.50601235 47.26833683 -15.140625 39.51953125 C-19.56415117 35.90450671 -24.36049931 34.68774399 -30 34 C-31.98278105 47.75154597 -32.25867587 61.69163789 -28 75 C-32.29 75 -36.58 75 -41 75 C-41.3719378 63.55258114 -41.53011055 52.39575519 -39.25 41.125 C-39.09305664 40.33706055 -38.93611328 39.54912109 -38.77441406 38.73730469 C-34.21142143 18.18194246 -22.83877069 -2.80525843 0 0 Z " fill="#EA415C" transform="translate(1513,784)"/>
<path d="M0 0 C5.94 0 11.88 0 18 0 C17.34 1.98 16.68 3.96 16 6 C15.72373872 9.36203242 15.72373872 9.36203242 15.8125 12.75 C15.81894531 13.87921875 15.82539062 15.0084375 15.83203125 16.171875 C15.81092781 18.94968753 15.81092781 18.94968753 17 21 C20.33945263 21.40891257 22.94375208 21.61955072 25.91796875 19.875 C31.30926413 15.46080506 33.87083084 11.08302121 34.6875 4.125 C34.790625 2.76375 34.89375 1.4025 35 0 C39.95 0 44.9 0 50 0 C47.42032552 7.73902343 44.58259287 15.12247517 38.125 20.375 C34.93292213 23.3755532 34.43170896 25.58182925 34.25 29.9375 C35.0477647 43.57771212 40.77234466 59.85906565 49.71875 70.2734375 C52 73 52 73 52 75 C49.41414795 75.16236745 46.83848046 75.28095486 44.25 75.375 C43.52039062 75.42527344 42.79078125 75.47554687 42.0390625 75.52734375 C39.890625 75.5859375 39.890625 75.5859375 36 75 C26.26679223 64.00832511 26.63457521 46.09372408 25.32543945 32.29394531 C25.23994377 30.03968556 25.23994377 30.03968556 24 29 C21.32941149 28.85884839 18.67567762 28.95752893 16 29 C15.97498284 33.76480746 15.95699243 38.52957534 15.94506836 43.29443359 C15.94008898 44.91000028 15.93330306 46.52556258 15.92456055 48.14111328 C15.8752684 57.49502388 16.04861051 66.68087775 17 76 C11.72 76 6.44 76 1 76 C1.33 74.35 1.66 72.7 2 71 C2.09410757 68.96286062 2.13795218 66.92308787 2.14526367 64.88378906 C2.15164352 63.67192932 2.15802338 62.46006958 2.16459656 61.21148682 C2.16570938 59.90935242 2.1668222 58.60721802 2.16796875 57.265625 C2.17118617 55.90427618 2.1745506 54.5429277 2.17805481 53.18157959 C2.18403241 50.33035481 2.18589621 47.47916028 2.18530273 44.62792969 C2.18520139 40.99570879 2.19883104 37.36368458 2.21607494 33.73151016 C2.22726161 30.91916027 2.22921988 28.10685685 2.22869301 25.294487 C2.23042897 23.31107633 2.24122975 21.32768017 2.25224304 19.34429932 C2.23521819 12.56857418 1.78743675 6.54404637 0 0 Z " fill="#EA425D" transform="translate(1412,875)"/>
<path d="M0 0 C3.68318478 0.89833775 5.73771119 3.15330979 8.5625 5.625 C10.21619357 6.32322617 11.87977014 6.99998605 13.5625 7.625 C18.76611349 18.03222698 14.65093458 41.8085316 13.875 53.375 C13.79511841 54.86108765 13.79511841 54.86108765 13.71362305 56.37719727 C13.16307778 63.35772948 11.08719878 68.5958019 7.5625 74.625 C5.61992307 73.66173871 3.69543867 72.70096496 1.8125 71.625 C-0.62433934 70.45759305 -0.62433934 70.45759305 -4.1875 69.75 C-9.51599227 68.47514577 -14.24354886 66.42005093 -18.5 62.9375 C-22.97739587 51.89325686 -13.7725529 30.31610927 -11 18.95947266 C-10.52333164 16.98121621 -10.07142425 14.9970189 -9.625 13.01171875 C-8.19625672 7.01262054 -6.65383128 1.70611058 0 0 Z " fill="#FBFAF7" transform="translate(1010.4375,554.375)"/>
<path d="M0 0 C3.875 1.75 3.875 1.75 5 4 C5.23873623 7.28613396 5.18519014 10.58114583 5.1875 13.875 C5.19974609 14.78636719 5.21199219 15.69773437 5.22460938 16.63671875 C5.22654297 17.51714844 5.22847656 18.39757812 5.23046875 19.3046875 C5.23457764 20.10890137 5.23868652 20.91311523 5.24291992 21.74169922 C4.97590333 24.22401431 4.24066762 25.85180414 3 28 C2.34 28 1.68 28 1 28 C0.731875 26.80375 0.46375 25.6075 0.1875 24.375 C-1.43418642 18.00087142 -3.47942825 13.82193429 -9 10 C-11.28705831 8.85647084 -12.59264762 8.89665561 -15.125 8.9375 C-17.043125 8.9684375 -17.043125 8.9684375 -19 9 C-20.24730869 12.74192608 -20.44621667 15.04779522 -20 19 C-16.56143876 25.51488533 -11.63715642 30.74350805 -6.5 35.9375 C-1.09997052 41.53184126 3.5769683 46.94189038 7 54 C7.33 54.66 7.66 55.32 8 56 C8.81322378 62.42580105 7.9156068 67.76016466 4 73 C-2.5989546 79.17025221 -8.77901451 79.30737652 -17.58203125 79.20703125 C-23.60578484 78.84216389 -27.1603062 77.13908402 -31.4375 72.8125 C-33.94640735 69.60028709 -34.91613705 67.07873922 -34.58984375 62.99609375 C-33.47579739 59.22604281 -31.12405555 56.33795914 -28 54 C-25.29296875 53.30859375 -25.29296875 53.30859375 -23 53 C-22.96261719 53.86882813 -22.92523437 54.73765625 -22.88671875 55.6328125 C-22.63606769 65.09272233 -22.63606769 65.09272233 -18 73 C-15.96618256 73.19965405 -15.96618256 73.19965405 -13.625 73.1875 C-12.83351563 73.20167969 -12.04203125 73.21585938 -11.2265625 73.23046875 C-8.71268667 73.14507509 -8.71268667 73.14507509 -6 71 C-4.8916813 65.92422162 -5.08855283 60.95823043 -7.2890625 56.23046875 C-10.58545636 51.33103404 -14.43323627 47.58121335 -18.94921875 43.828125 C-27.1228486 36.54191782 -31.91329645 28.12394552 -33.5625 17.3125 C-32.53038529 11.23449116 -29.89244451 7.37479111 -24.9296875 3.76953125 C-20.43675622 1.34217983 -16.1728836 1.62209046 -11.1875 1.875 C-9.49382436 1.94371411 -7.79978064 2.00403144 -6.10546875 2.0546875 C-4.99401489 2.10858643 -4.99401489 2.10858643 -3.86010742 2.16357422 C-1.75046942 2.17876671 -1.75046942 2.17876671 0 0 Z " fill="#EA435A" transform="translate(1279,781)"/>
<path d="M0 0 C1.9375 0.75 1.9375 0.75 4 2 C5.38533251 5.63868982 5.16817539 9.46690174 5.1875 13.3125 C5.20167969 14.58738281 5.21585938 15.86226562 5.23046875 17.17578125 C4.99001075 21.16575384 4.2354171 24.22538569 3 28 C1.33805551 25.50708327 0.5721234 23.93905866 -0.3125 21.1875 C-2.09906922 16.28796927 -4.61569785 12.6920854 -8.9375 9.625 C-11.77493409 8.76517149 -14.05399504 8.68659522 -17 9 C-19.01951062 9.93597315 -19.01951062 9.93597315 -20 12 C-21.03341467 16.96039042 -19.85589952 19.79554076 -17.3125 24.125 C-13.69723872 29.49624533 -9.35037909 33.81697795 -4.71484375 38.28564453 C1.66762651 44.48772446 8.14715584 51.9702496 8.4375 61.3125 C8.30682442 66.5395233 6.38058644 70.08703774 3 74 C-3.20613109 79.01772301 -9.2536375 80.53292848 -17.11328125 80.3828125 C-23.20303388 79.57524043 -28.02022203 76.69695255 -32.625 72.75 C-34.61637454 68.76725093 -34.88270919 65.35981585 -34 61 C-32.13260688 57.24932106 -29.79039278 55.28838655 -25.8203125 53.83984375 C-24.88960937 53.56269531 -23.95890625 53.28554688 -23 53 C-22.96261719 53.86882813 -22.92523437 54.73765625 -22.88671875 55.6328125 C-22.55070973 64.27690283 -22.55070973 64.27690283 -19 72 C-15.51131349 74.32579101 -14.10281481 74.41865457 -10 74 C-7.75510019 72.9168785 -7.75510019 72.9168785 -6 71 C-4.93686816 66.34016888 -5.01257888 61.32841661 -6.89453125 56.890625 C-10.61396864 51.63172259 -15.72301042 47.289416 -20.30688477 42.78637695 C-27.67682866 35.46969179 -32.17571548 27.82978605 -33.4375 17.375 C-32.71887399 11.83131365 -30.7224502 8.52646629 -26.5625 4.83984375 C-22.02862932 1.95156425 -16.83669334 2.32397242 -11.625 2.25 C-10.60277344 2.22035156 -9.58054687 2.19070313 -8.52734375 2.16015625 C-6.01815147 2.08980506 -3.50986946 2.03693794 -1 2 C-0.67 1.34 -0.34 0.68 0 0 Z " fill="#EA425B" transform="translate(1279,872)"/>
<path d="M0 0 C5.94 0 11.88 0 18 0 C17.34 1.98 16.68 3.96 16 6 C15.69832858 8.54212131 15.69832858 8.54212131 15.7253418 11.09643555 C15.71580978 12.06151535 15.70627777 13.02659515 15.69645691 14.0209198 C15.69782402 15.56324028 15.69782402 15.56324028 15.69921875 17.13671875 C15.69493362 18.2119429 15.6906485 19.28716705 15.68623352 20.39497375 C15.68050157 22.66687315 15.67998157 24.93879089 15.68432617 27.21069336 C15.6874734 30.65836571 15.66405605 34.10516877 15.63867188 37.55273438 C15.63639727 39.76822809 15.63569613 41.9837241 15.63671875 44.19921875 C15.627509 45.21731125 15.61829926 46.23540375 15.60881042 47.28434753 C15.65335935 54.2994167 15.80129059 63.14145207 20.48295593 68.78886414 C22.43370369 70.34624841 23.53213453 70.34347975 26 70.25 C27.0209375 70.22679687 27.0209375 70.22679687 28.0625 70.203125 C30.21614892 70.04772119 30.21614892 70.04772119 33 69 C34.20441875 67.34970558 34.20441875 67.34970558 35.125 65.3125 C35.45757813 64.64863281 35.79015625 63.98476563 36.1328125 63.30078125 C38.43350055 57.19670351 38.17520014 50.77176267 38.203125 44.34375 C38.21167511 42.81300842 38.21167511 42.81300842 38.22039795 41.25134277 C38.22981729 39.09970121 38.2363697 36.94804543 38.24023438 34.79638672 C38.249967 31.51113831 38.28103067 28.22650879 38.3125 24.94140625 C38.31902825 22.84635786 38.32427942 20.75130503 38.328125 18.65625 C38.3404718 17.67797241 38.3528186 16.69969482 38.36553955 15.69177246 C38.34794901 10.29253905 37.85440947 6.74416042 35 2 C35 1.34 35 0.68 35 0 C39.95 0 44.9 0 50 0 C49.01 1.98 48.02 3.96 47 6 C46.56549011 8.61899499 46.56549011 8.61899499 46.63110352 11.2800293 C46.62422012 12.2851506 46.61733673 13.29027191 46.61024475 14.32585144 C46.61640305 15.39781265 46.62256134 16.46977386 46.62890625 17.57421875 C46.61151682 19.87435039 46.59393252 22.17448057 46.57617188 24.47460938 C46.566128 28.07742107 46.5624965 31.68013391 46.56420898 35.28295898 C46.5606144 38.77617272 46.53317441 42.26863929 46.50390625 45.76171875 C46.51208878 46.82355881 46.5202713 47.88539886 46.52870178 48.97941589 C46.4451323 57.48064999 44.95561539 65.2865345 39.5625 72.0625 C32.96783786 77.04870796 25.96381748 76.5786857 18 76 C13.24433457 75.03590428 10.0131098 72.63818102 7.0625 68.74609375 C3.562386 62.99406816 1.90293478 56.50018189 1.81054688 49.82006836 C1.79382935 48.78897446 1.77711182 47.75788055 1.7598877 46.69554138 C1.74631226 45.58816116 1.73273682 44.48078094 1.71875 43.33984375 C1.70034058 42.19842422 1.68193115 41.0570047 1.66296387 39.8809967 C1.58428802 34.99522257 1.51648377 30.10931123 1.44775391 25.22338867 C1.39605712 21.65797048 1.33880175 18.09267145 1.28125 14.52734375 C1.26767456 13.4179393 1.25409912 12.30853485 1.2401123 11.16551208 C1.22339478 10.13757034 1.20667725 9.1096286 1.18945312 8.05053711 C1.17692505 7.14548935 1.16439697 6.24044159 1.15148926 5.30796814 C1.08738263 2.83979245 1.08738263 2.83979245 0 0 Z " fill="#EA405B" transform="translate(1296,784)"/>
<path d="M0 0 C4.45736671 0.0964798 7.49485986 0.74801405 11.25 3.3125 C15.17321454 7.47035656 14.73696186 11.37629127 14.6015625 16.84765625 C13.9239925 23.52548502 12.06206364 29.13802364 7.75 34.3125 C6.925 34.9725 6.1 35.6325 5.25 36.3125 C4.63125 36.910625 4.0125 37.50875 3.375 38.125 C0.32090216 39.83170173 -2.32109184 39.51032162 -5.75 39.3125 C-7.29971773 36.21306455 -6.91291442 32.93306402 -6.91796875 29.53125 C-6.92129715 28.76196167 -6.92462555 27.99267334 -6.92805481 27.20007324 C-6.93312004 25.57267862 -6.93546326 23.9452736 -6.93530273 22.31787109 C-6.9374913 19.82241825 -6.95565654 17.32740595 -6.97460938 14.83203125 C-6.97754291 13.25260568 -6.97952797 11.67317801 -6.98046875 10.09375 C-6.98765427 9.3447644 -6.99483978 8.59577881 -7.00224304 7.82409668 C-6.97574326 1.84546797 -6.07145179 0.02759751 0 0 Z " fill="#FEF22F" transform="translate(1375.75,811.6875)"/>
<path d="M0 0 C3.51922881 2.18974237 5.52939909 4.14780646 7 8 C7.7062527 15.96139412 7.90683722 23.85991819 4 31 C1.35090358 33.86388802 -0.1912388 34.83150808 -4 35.625 C-7.47947037 34.90011034 -8.76575647 33.58217415 -10.921875 30.80078125 C-13.79306686 26.00505861 -14.27232232 22.08057891 -14.25 16.5 C-14.25515625 15.2109375 -14.2603125 13.921875 -14.265625 12.59375 C-13.91617012 7.86583105 -13.0698089 5.13094084 -9.8125 1.6875 C-6.19875662 -0.48074603 -4.15360383 -0.59337198 0 0 Z " fill="#EB4859" transform="translate(1279,718)"/>
<path d="M0 0 C3.5625 0.1875 3.5625 0.1875 5.5625 2.1875 C5.55101232 4.10594301 5.45527294 6.02434255 5.3125 7.9375 C5.118238 12.33296302 5.118238 12.33296302 6.92578125 16.171875 C8.4516281 17.53286024 10.00543789 18.86234076 11.5625 20.1875 C11.30542628 22.30736943 11.09374514 23.65625486 9.5625 25.1875 C6.22640116 25.21927237 2.90125494 25.11885991 -0.43359375 25.02734375 C-3.55371939 24.85808121 -3.55371939 24.85808121 -5.4375 27.1875 C-8.12589385 27.45741906 -10.72891936 27.27487357 -13.4375 27.1875 C-13.4375 24.2175 -13.4375 21.2475 -13.4375 18.1875 C-15.7475 17.5275 -18.0575 16.8675 -20.4375 16.1875 C-20.4375 15.1975 -20.4375 14.2075 -20.4375 13.1875 C-18.1275 12.5275 -15.8175 11.8675 -13.4375 11.1875 C-13.9325 10.589375 -14.4275 9.99125 -14.9375 9.375 C-16.4375 7.1875 -16.4375 7.1875 -16.4375 4.1875 C-15.58285156 3.98253906 -14.72820313 3.77757812 -13.84765625 3.56640625 C-12.74292969 3.29699219 -11.63820313 3.02757812 -10.5 2.75 C-8.84677734 2.34974609 -8.84677734 2.34974609 -7.16015625 1.94140625 C-0.18550563 0.01011849 -0.18550563 0.01011849 0 0 Z " fill="#EA4162" transform="translate(850.4375,626.8125)"/>
<path d="M0 0 C5.72398793 0.74660712 11.34853777 1.82877141 17 3 C17.20086443 6.71599191 17.1519437 7.77208445 15 11 C14.5 13.5 14.5 13.5 15 16 C16.31337396 17.0260734 17.64664105 18.02727325 19 19 C19 20.32 19 21.64 19 23 C15.73485494 24.63257253 12.13841388 24.39801914 8.53125 24.62109375 C5.8354242 24.76815328 5.8354242 24.76815328 4 27 C1 27.25 1 27.25 -2 27 C-2.66 26.34 -3.32 25.68 -4 25 C-3.9765625 22.8359375 -3.9765625 22.8359375 -3.625 20.375 C-3.51414062 19.55773437 -3.40328125 18.74046875 -3.2890625 17.8984375 C-3.19367187 17.27195312 -3.09828125 16.64546875 -3 16 C-3.763125 15.9175 -4.52625 15.835 -5.3125 15.75 C-8.52373261 14.85384206 -9.29374499 13.78388975 -11 11 C-5.375 9 -5.375 9 -2 9 C-2.04125 8.071875 -2.0825 7.14375 -2.125 6.1875 C-2 3 -2 3 0 0 Z " fill="#EB4464" transform="translate(900,603)"/>
<path d="M0 0 C1.65 0 3.3 0 5 0 C5.66 2.31 6.32 4.62 7 7 C9.64 7 12.28 7 15 7 C15.66 8.32 16.32 9.64 17 11 C16.01 11.66 15.02 12.32 14 13 C14.33 13.721875 14.66 14.44375 15 15.1875 C16.01204501 18.0338766 16.24919846 20.00961842 16 23 C15.67 23.33 15.34 23.66 15 24 C13.0390625 23.9140625 13.0390625 23.9140625 10.625 23.625 C9.83351563 23.53476562 9.04203125 23.44453125 8.2265625 23.3515625 C6 23 6 23 3 22 C2.34 22.33 1.68 22.66 1 23 C-2.5 23.1875 -2.5 23.1875 -6 23 C-8 21 -8 21 -8.125 17.875 C-8.08375 16.92625 -8.0425 15.9775 -8 15 C-8.639375 14.773125 -9.27875 14.54625 -9.9375 14.3125 C-12 13 -12 13 -12.8125 10.5 C-13 8 -13 8 -12 6 C-8.7 6 -5.4 6 -2 6 C-1.34 4.02 -0.68 2.04 0 0 Z " fill="#EB4461" transform="translate(1120,652)"/>
<path d="M0 0 C2.81256281 -0.02684312 5.62487241 -0.04676188 8.4375 -0.0625 C9.23994141 -0.07087891 10.04238281 -0.07925781 10.86914062 -0.08789062 C12.91295221 -0.0965143 14.95683902 -0.0522815 17 0 C18.96822886 1.96822886 18.66248381 5.34808709 19 8 C20.98 8.66 22.96 9.32 25 10 C25 10.99 25 11.98 25 13 C21.81237635 15.12508244 19.73487777 15.5020163 16 16 C15.87882813 16.62648438 15.75765625 17.25296875 15.6328125 17.8984375 C15.46523438 18.71570313 15.29765625 19.53296875 15.125 20.375 C14.96257813 21.18710937 14.80015625 21.99921875 14.6328125 22.8359375 C14 25 14 25 12 27 C9.2500075 27.35256314 7.64400485 27.39100294 5.25 25.9375 C3.42094252 23.10246091 3.31245191 20.31199025 3 17 C1.6078125 17.061875 1.6078125 17.061875 0.1875 17.125 C-3 17 -3 17 -6 15 C-5.875 13.125 -5.875 13.125 -5 11 C-1.9375 9.75 -1.9375 9.75 1 9 C0.67 6.03 0.34 3.06 0 0 Z " fill="#EA4364" transform="translate(951,567)"/>
<path d="M0 0 C2.5625 -0.4375 2.5625 -0.4375 5 0 C7 2 7 2 7.1953125 3.9453125 C7.13020833 5.96354167 7.06510417 7.98177083 7 10 C8.258125 10.309375 9.51625 10.61875 10.8125 10.9375 C13.26177394 11.53978048 15.60265923 12.20088641 18 13 C17.67 14.32 17.34 15.64 17 17 C15.02 17.33 13.04 17.66 11 18 C10.67 21.3 10.34 24.6 10 28 C8.02 28.33 6.04 28.66 4 29 C3.649375 28.34 3.29875 27.68 2.9375 27 C1.03442858 24.58896039 1.03442858 24.58896039 -2.6875 24.75 C-3.780625 24.8325 -4.87375 24.915 -6 25 C-6.66 23.68 -7.32 22.36 -8 21 C-7.01 19.68 -6.02 18.36 -5 17 C-6.98 16.67 -8.96 16.34 -11 16 C-10.34 12.7 -9.68 9.4 -9 6 C-8.071875 5.938125 -7.14375 5.87625 -6.1875 5.8125 C-2.80069894 5.34452754 -2.80069894 5.34452754 -1.4375 2.4375 C-0.7259375 1.2309375 -0.7259375 1.2309375 0 0 Z " fill="#EB4561" transform="translate(1050,619)"/>
<path d="M0 0 C4.875 0.875 4.875 0.875 6 2 C8.5 2.16666667 8.5 2.16666667 11 2 C11.33 1.67 11.66 1.34 12 1 C15.47256915 0.69132719 17.3872288 0.61298661 20.375 2.5 C20.91125 2.995 21.4475 3.49 22 4 C21.4409112 7.24271506 20.5867822 8.93057424 18 11 C17.34 11 16.68 11 16 11 C16.474375 11.721875 16.94875 12.44375 17.4375 13.1875 C18.95346883 15.91624389 19.47427775 17.96306079 20 21 C19.11957031 20.98839844 18.23914062 20.97679687 17.33203125 20.96484375 C16.17058594 20.95582031 15.00914063 20.94679688 13.8125 20.9375 C12.66394531 20.92589844 11.51539063 20.91429687 10.33203125 20.90234375 C7.07947825 20.8772276 7.07947825 20.8772276 4.328125 21.67578125 C2 22 2 22 -0.09765625 20.890625 C-0.74605469 20.34921875 -1.39445312 19.8078125 -2.0625 19.25 C-2.71347656 18.71890625 -3.36445312 18.1878125 -4.03515625 17.640625 C-4.68355469 17.09921875 -5.33195312 16.5578125 -6 16 C-6.74121094 15.49984375 -7.48242188 14.9996875 -8.24609375 14.484375 C-9.11427734 13.74960937 -9.11427734 13.74960937 -10 13 C-10 12.01 -10 11.02 -10 10 C-6.78548731 8.39274365 -3.56387464 8.94251815 0 9 C0 6.03 0 3.06 0 0 Z " fill="#EB4461" transform="translate(1075,667)"/>
<path d="M0 0 C3.125 0.25 3.125 0.25 4.5 1.6875 C7.20596494 4.28938936 10.46798074 3.95024432 14.125 4.25 C14.8125 6.5625 14.8125 6.5625 15.125 9.25 C14.1456121 10.27019573 13.14604551 11.27149805 12.125 12.25 C12.39536147 15.22397616 12.97946026 16.10446026 15.125 18.25 C14.75 20.875 14.75 20.875 14.125 23.25 C13.42632813 23.22679687 12.72765625 23.20359375 12.0078125 23.1796875 C11.09773438 23.16164063 10.18765625 23.14359375 9.25 23.125 C8.34507813 23.10179687 7.44015625 23.07859375 6.5078125 23.0546875 C3.93693006 23.00675164 3.93693006 23.00675164 2.125 25.25 C-0.4375 25.4375 -0.4375 25.4375 -2.875 25.25 C-3.875 24.25 -3.875 24.25 -3.9375 20.6875 C-3.916875 19.553125 -3.89625 18.41875 -3.875 17.25 C-4.98875 17.1675 -6.1025 17.085 -7.25 17 C-10.875 16.25 -10.875 16.25 -12.3125 14.1875 C-12.498125 13.548125 -12.68375 12.90875 -12.875 12.25 C-10.875 10.25 -10.875 10.25 -8.375 9.5625 C-5.47368231 8.4015648 -5.47368231 8.4015648 -4.625 4.6875 C-4.3775 3.553125 -4.13 2.41875 -3.875 1.25 C-2.875 0.25 -2.875 0.25 0 0 Z " fill="#EB4662" transform="translate(1137.875,688.75)"/>
<path d="M0 0 C2.625 0.25 2.625 0.25 4.375 1.25 C5.75110798 3.45177278 5.91424474 4.76057375 6.1875 7.3125 C6.21016344 11.25162681 6.21016344 11.25162681 8.625 13.25 C8.25 15.375 8.25 15.375 7.625 17.25 C6.67625 17.353125 5.7275 17.45625 4.75 17.5625 C1.33392499 17.93539295 1.33392499 17.93539295 -0.375 21.25 C-4.70397841 21.83274709 -6.86135455 21.54074271 -10.6875 19.375 C-13.375 17.25 -13.375 17.25 -15.375 15.25 C-15.04528521 11.95285207 -14.7523161 10.6273161 -12.375 8.25 C-12.20818891 5.16652174 -12.20818891 5.16652174 -12.375 2.25 C-11.055 2.25 -9.735 2.25 -8.375 2.25 C-5.25049735 1.74136003 -2.92860305 0.30827401 0 0 Z " fill="#EA4261" transform="translate(1010.375,599.75)"/>
<path d="M0 0 C3.125 -0.5 3.125 -0.5 6 0 C9.00617269 3.00617269 8.59585316 5.82381598 9 10 C10.65 10.66 12.3 11.32 14 12 C13.67 12.99 13.34 13.98 13 15 C12.030625 15.28875 11.06125 15.5775 10.0625 15.875 C6.79235592 16.67513318 6.79235592 16.67513318 5.75 19.5625 C5.5025 20.366875 5.255 21.17125 5 22 C2.30234449 23.34882775 -0.01578022 23 -3 23 C-3.33 23.33 -3.66 23.66 -4 24 C-5.99958364 24.04080783 -8.00045254 24.04254356 -10 24 C-9.67 22.35 -9.34 20.7 -9 19 C-8.01 18.67 -7.02 18.34 -6 18 C-7.24546405 14.26360784 -8.63404953 13.81243487 -12 12 C-11.67 10.68 -11.34 9.36 -11 8 C-9.39125 7.690625 -9.39125 7.690625 -7.75 7.375 C-3.7807893 6.34076044 -3.7807893 6.34076044 -1.9375 2.875 C-1.298125 1.92625 -0.65875 0.9775 0 0 Z " fill="#EA4766" transform="translate(948,605)"/>
<path d="M0 0 C0.74414665 2.89390362 1.14738554 4.55784339 0.1875 7.4375 C-0.30394161 10.00676741 -0.30394161 10.00676741 1.30078125 11.5078125 C2.41935094 12.53123948 3.56946353 13.52137575 4.75 14.47265625 C5.1625 14.97667969 5.575 15.48070312 6 16 C5.6875 18.18359375 5.6875 18.18359375 5 20 C4.14277344 19.91621094 3.28554688 19.83242188 2.40234375 19.74609375 C-3.63892932 19.20803223 -9.03735585 18.91588288 -15 20 C-17.10316798 17.89683202 -16.44449765 13.51214432 -16.62109375 10.6640625 C-16.83584594 7.77821914 -16.83584594 7.77821914 -19 5 C-12.8523179 2.2398162 -6.88292973 -0.41714726 0 0 Z " fill="#E74562" transform="translate(925,566)"/>
<path d="M0 0 C0.05386629 2.12472576 0.09273071 4.24983652 0.125 6.375 C0.14820313 7.55835938 0.17140625 8.74171875 0.1953125 9.9609375 C0 13 0 13 -2 15 C-6.9150021 15.55852297 -9.71291439 14.28036468 -14 12 C-16.73572585 11.30092586 -16.73572585 11.30092586 -19 11 C-18.67 8.36 -18.34 5.72 -18 3 C-20.475 2.01 -20.475 2.01 -23 1 C-22.125 -2.875 -22.125 -2.875 -21 -4 C-12.62792755 -5.91448481 -7.18855026 -4.50648813 0 0 Z " fill="#EA4862" transform="translate(1090,593)"/>
<path d="M0 0 C2.97707311 1.32440135 3.87412222 2.35701681 6 5 C6.86259496 9.05419632 6.17933126 10.67225667 4.1875 14.3125 C2 17 2 17 -1 18 C-2.66267874 18.14220279 -4.3315173 18.22020567 -6 18.25 C-6.86625 18.27578125 -7.7325 18.3015625 -8.625 18.328125 C-11 18 -11 18 -12.7890625 16.859375 C-14.51885651 14.2033042 -14.39812058 12.14439879 -14.375 9 C-14.38273437 7.948125 -14.39046875 6.89625 -14.3984375 5.8125 C-14 3 -14 3 -12.80859375 1.15625 C-8.9865121 -1.28724064 -4.32659347 -0.65330329 0 0 Z " fill="#FDEE30" transform="translate(1382,880)"/>
<path d="M0 0 C1.05445313 0.08894531 2.10890625 0.17789063 3.1953125 0.26953125 C4.24460937 0.34558594 5.29390625 0.42164063 6.375 0.5 C9.54513775 1.12645958 11.09250396 1.75247184 13.3203125 4.08203125 C14.79962207 11.32762914 9.84490335 18.18803841 6.3203125 24.08203125 C5.35618302 25.80797288 4.39732161 27.53687468 3.4453125 29.26953125 C2.7374247 30.54061281 2.02927353 31.81154798 1.3203125 33.08203125 C6.51622862 32.64169938 9.98366331 32.19899786 14.3203125 29.08203125 C14.4453125 31.45703125 14.4453125 31.45703125 14.3203125 34.08203125 C12.3203125 36.08203125 12.3203125 36.08203125 8.40625 36.27734375 C6.83581899 36.26403501 5.26545029 36.24016727 3.6953125 36.20703125 C2.89351562 36.19800781 2.09171875 36.18898438 1.265625 36.1796875 C-0.71627273 36.15609348 -2.69801731 36.1202219 -4.6796875 36.08203125 C-2.72221989 29.23089463 0.16537916 23.17897923 3.5390625 16.93164062 C5.82222652 12.57560401 6.89951882 8.99129089 7.3203125 4.08203125 C4.40633005 4.49353278 4.40633005 4.49353278 1.3203125 6.08203125 C-0.37969618 8.60628656 -1.56289362 11.25719966 -2.6796875 14.08203125 C-4.6796875 12.08203125 -4.6796875 12.08203125 -4.9453125 9.76953125 C-4.94015625 8.88265625 -4.935 7.99578125 -4.9296875 7.08203125 C-4.93484375 6.19515625 -4.94 5.30828125 -4.9453125 4.39453125 C-4.54068783 0.87191648 -3.49979959 0.10713672 0 0 Z " fill="#ED5755" transform="translate(1295.6796875,716.91796875)"/>
<path d="M0 0 C4.35637734 0.07422399 7.27991437 0.35925912 10.6875 3.3125 C12.23774464 6.41298928 11.97742015 8.89144218 11.6875 12.3125 C9.55070715 15.70189556 8.5100233 17.03832557 4.6875 18.3125 C3.00391225 18.4543907 1.31429257 18.53264505 -0.375 18.5625 C-1.25285156 18.58828125 -2.13070313 18.6140625 -3.03515625 18.640625 C-3.78667969 18.53234375 -4.53820313 18.4240625 -5.3125 18.3125 C-7.70104824 14.72967765 -7.58148802 12.99856967 -7.5625 8.75 C-7.56765625 7.59371094 -7.5728125 6.43742188 -7.578125 5.24609375 C-7.10484559 0.01914023 -4.64313214 0.01884898 0 0 Z " fill="#FEF7F8" transform="translate(1548.3125,879.6875)"/>
<path d="M0 0 C1.05832031 -0.02578125 2.11664062 -0.0515625 3.20703125 -0.078125 C6.54173633 0.2889985 7.9075683 0.80643684 10.1875 3.25 C11.63875827 9.05503308 8.8270026 14.26020534 5.93823242 19.11621094 C4.72171417 21.07004896 3.47327878 23.0001112 2.21875 24.9296875 C0.54198414 27.67055478 -0.1849693 29.23473142 -0.8125 32.25 C0.62760481 31.99337755 2.0645687 31.71909179 3.5 31.4375 C4.30050781 31.28667969 5.10101562 31.13585937 5.92578125 30.98046875 C8.42195587 30.17427764 9.51172106 29.22947998 11.1875 27.25 C11.22991723 29.58294775 11.22842937 31.91702567 11.1875 34.25 C10.1875 35.25 10.1875 35.25 8.42163086 35.36352539 C7.67276611 35.35828857 6.92390137 35.35305176 6.15234375 35.34765625 C5.34345703 35.34443359 4.53457031 35.34121094 3.70117188 35.33789062 C2.85103516 35.32951172 2.00089844 35.32113281 1.125 35.3125 C0.27099609 35.30798828 -0.58300781 35.30347656 -1.46289062 35.29882812 C-3.57945663 35.28700373 -5.69598685 35.26906769 -7.8125 35.25 C-7.11726017 31.87015603 -5.84090436 29.05342268 -4.30859375 25.96875 C-3.81552734 24.96199219 -3.32246094 23.95523438 -2.81445312 22.91796875 C-1.77071737 20.80443641 -0.72383544 18.69245488 0.32617188 16.58203125 C1.06383789 15.07189453 1.06383789 15.07189453 1.81640625 13.53125 C2.27088135 12.61408203 2.72535645 11.69691406 3.19360352 10.75195312 C4.43362334 8.07911882 4.43362334 8.07911882 4.1875 4.25 C1.25306598 4.51656572 1.25306598 4.51656572 -1.8125 5.25 C-3.7576 8.16765 -4.26526317 9.87537285 -4.8125 13.25 C-5.4725 13.25 -6.1325 13.25 -6.8125 13.25 C-6.83936553 11.27090602 -6.85883375 9.29171029 -6.875 7.3125 C-6.88660156 6.21035156 -6.89820313 5.10820313 -6.91015625 3.97265625 C-6.73498393 -0.911148 -4.3387348 0.06295625 0 0 Z " fill="#EC5057" transform="translate(1248.8125,717.75)"/>
<path d="M0 0 C4.69103361 0.08146513 8.78677388 0.84927388 12.25 4.3125 C12.625 7.5625 12.625 7.5625 12.25 11.3125 C9.71688706 14.47889117 7.14824124 17.05130431 3.25 18.3125 C-0.3125 18.6875 -0.3125 18.6875 -3.75 18.3125 C-6.11221329 16.02648714 -6.70866774 14.64760238 -7.11328125 11.3671875 C-7.09652344 10.31789063 -7.07976562 9.26859375 -7.0625 8.1875 C-7.05863281 7.13304687 -7.05476563 6.07859375 -7.05078125 4.9921875 C-6.51644441 0.23173199 -4.26840108 0.01940182 0 0 Z " fill="#FEF02F" transform="translate(1375.75,788.6875)"/>
<path d="M0 0 C5.61 0 11.22 0 17 0 C18.35439668 2.70879335 18.06501451 5.00933268 18 8 C17.34 8 16.68 8 16 8 C15.34 7.01 14.68 6.02 14 5 C11.80545319 4.42006301 11.80545319 4.42006301 9.375 4.3125 C8.55773438 4.24675781 7.74046875 4.18101562 6.8984375 4.11328125 C6.27195312 4.07589844 5.64546875 4.03851562 5 4 C5 5.98 5 7.96 5 10 C6.5778125 9.87625 6.5778125 9.87625 8.1875 9.75 C12 10 12 10 14.9375 11.375 C17.65966726 14.83957651 17.65038652 17.21492138 17.421875 21.53125 C16.60526254 26.30994512 14.01108317 28.98891683 10.6875 32.3125 C7.4404827 34.35132482 4.78940134 34.70279205 1 35 C0.67 34.34 0.34 33.68 0 33 C1.0725 32.62875 2.145 32.2575 3.25 31.875 C7.30837284 30.10512138 9.08138918 28.06745493 11 24 C11.42098035 21.13839942 11.29306183 18.93061835 11 16 C7.99382731 12.99382731 5.17618402 13.40414684 1 13 C0.67 8.71 0.34 4.42 0 0 Z " fill="#EB4B58" transform="translate(1314,718)"/>
<path d="M0 0 C2.5 -0.3125 2.5 -0.3125 5 0 C7.96480373 2.96480373 7.292282 5.64715845 7.32226562 9.703125 C7.31904297 10.70859375 7.31582031 11.7140625 7.3125 12.75 C7.32861328 13.74 7.34472656 14.73 7.36132812 15.75 C7.36507255 21.35165459 7.06023416 25.25219608 4 30 C1.46749201 29.07141374 0.24149516 28.42134994 -1.1171875 26.05078125 C-2.39101514 21.64874856 -2.28923964 17.43333867 -2.25 12.875 C-2.25773437 11.96878906 -2.26546875 11.06257812 -2.2734375 10.12890625 C-2.27085938 9.25878906 -2.26828125 8.38867188 -2.265625 7.4921875 C-2.26336914 6.70183105 -2.26111328 5.91147461 -2.25878906 5.09716797 C-2 3 -2 3 0 0 Z " fill="#FDED30" transform="translate(1273,721)"/>
<path d="M0 0 C3.67362834 2.57935607 4.78679784 4.24046732 6 8.5625 C6 12 6 12 5 14.4375 C3 16 3 16 -0.5 16.4375 C-4 16 -4 16 -5.875 14.875 C-7 13 -7 13 -7.4375 9.9375 C-7.623125 8.968125 -7.80875 7.99875 -8 7 C-9.95163118 5.56362302 -9.95163118 5.56362302 -12 5 C-11.6875 3.0625 -11.6875 3.0625 -11 1 C-7.27252432 -0.24249189 -3.86637557 -0.65570112 0 0 Z " fill="#EB4762" transform="translate(1119,621)"/>
<path d="M0 0 C1.91015625 0.23046875 1.91015625 0.23046875 3.91015625 2.23046875 C4.66942801 6.33178094 4.69907985 10.13433562 3.91015625 14.23046875 C1.00049616 18.22703202 -2.42211533 20.67455928 -7.08984375 22.23046875 C-7.11872189 18.75131934 -7.13660062 15.27220044 -7.15234375 11.79296875 C-7.16072266 10.79974609 -7.16910156 9.80652344 -7.17773438 8.78320312 C-7.18095703 7.83896484 -7.18417969 6.89472656 -7.1875 5.921875 C-7.19273682 5.04732666 -7.19797363 4.17277832 -7.20336914 3.27172852 C-6.95819959 -1.13657822 -3.69515515 0.07376898 0 0 Z " fill="#FEF031" transform="translate(1434.08984375,902.76953125)"/>
<path d="M0 0 C2.57147007 1.99674058 4.45055219 4.13352155 6 7 C5.875 10.9375 5.875 10.9375 5 14 C3.34385343 14.38218767 1.67542976 14.71395102 0 15 C-0.33 14.67 -0.66 14.34 -1 14 C-3.27983876 13.46907865 -5.57194084 13.03682029 -7.87109375 12.59765625 C-10 12 -10 12 -12 10 C-11.73455195 6.15100331 -9.49088358 3.79280886 -7 1 C-4.26760135 -0.36619933 -3.04371875 -0.55340341 0 0 Z " fill="#EA4565" transform="translate(1018,559)"/>
<path d="M0 0 C0.66 0 1.32 0 2 0 C2.6732656 2.89444095 3.33880404 5.79030013 4 8.6875 C4.19078125 9.50412109 4.3815625 10.32074219 4.578125 11.16210938 C5.48733916 15.17239326 6.27000098 18.85717252 6 23 C5.030625 22.360625 4.06125 21.72125 3.0625 21.0625 C-1.1553638 18.61648472 -5.19519242 18.21790511 -10 18 C-9.44956657 13.79257738 -8.06313359 11.27502987 -5.5625 7.875 C-4.94503906 7.02679687 -4.32757812 6.17859375 -3.69140625 5.3046875 C-2.85416016 4.16386719 -2.85416016 4.16386719 -2 3 C-1.34 2.01 -0.68 1.02 0 0 Z " fill="#FDEB31" transform="translate(1319,886)"/>
<path d="M0 0 C2.17779782 3.26669673 2.50762687 5.2250161 3.0625 9.0625 C3.59062211 13.16946658 3.59062211 13.16946658 5 17 C5.039992 18.99960012 5.04346799 21.00047242 5 23 C4.030625 22.360625 3.06125 21.72125 2.0625 21.0625 C-2.1553638 18.61648472 -6.19519242 18.21790511 -11 18 C-9.71699904 10.62274448 -5.23087686 5.23087686 0 0 Z " fill="#FDF2F4" transform="translate(1492,886)"/>
<path d="M0 0 C0.66 0.33 1.32 0.66 2 1 C2.64438698 3.61597465 3.17069217 6.16314363 3.625 8.8125 C3.7590625 9.53759766 3.893125 10.26269531 4.03125 11.00976562 C4.64142065 14.41240094 5 17.5321696 5 21 C4.41992188 20.79503906 3.83984375 20.59007812 3.2421875 20.37890625 C-1.1621984 18.85990187 -5.35677777 17.5952849 -10 17 C-9.47154423 12.47509746 -7.72491323 9.8507782 -5 6.25 C-4.278125 5.28578125 -3.55625 4.3215625 -2.8125 3.328125 C-1 1 -1 1 0 0 Z " fill="#FDED30" transform="translate(1497,795)"/>
<path d="M0 0 C4.95 0 9.9 0 15 0 C17 5 17 5 16.25 7.6875 C15 10 15 10 13 12 C8.68399195 11.756643 6.64175632 10.16270989 3.6875 7.125 C2.64142578 6.07699219 2.64142578 6.07699219 1.57421875 5.0078125 C0 3 0 3 0 0 Z " fill="#E94560" transform="translate(1156,676)"/>
<path d="M0 0 C5.61 0 11.22 0 17 0 C18.35439668 2.70879335 18.06501451 5.00933268 18 8 C17.34 8 16.68 8 16 8 C15.34 7.01 14.68 6.02 14 5 C11.80545319 4.42006301 11.80545319 4.42006301 9.375 4.3125 C8.55773438 4.24675781 7.74046875 4.18101562 6.8984375 4.11328125 C6.27195312 4.07589844 5.64546875 4.03851562 5 4 C5 3.34 5 2.68 5 2 C3.35 2 1.7 2 0 2 C0 1.34 0 0.68 0 0 Z " fill="#EF6E50" transform="translate(1314,718)"/>
<path d="M0 0 C1.37478516 0.01740234 1.37478516 0.01740234 2.77734375 0.03515625 C3.69644531 0.04417969 4.61554688 0.05320312 5.5625 0.0625 C6.27277344 0.07410156 6.98304687 0.08570313 7.71484375 0.09765625 C7.71484375 0.75765625 7.71484375 1.41765625 7.71484375 2.09765625 C6.80734375 2.26265625 5.89984375 2.42765625 4.96484375 2.59765625 C0.45901113 4.6772713 -0.52003436 7.63293616 -2.28515625 12.09765625 C-2.61515625 12.09765625 -2.94515625 12.09765625 -3.28515625 12.09765625 C-3.31202904 10.28523573 -3.3314934 8.47270392 -3.34765625 6.66015625 C-3.35925781 5.65082031 -3.37085938 4.64148438 -3.3828125 3.6015625 C-3.25661147 0.36576812 -3.22349358 0.13775614 0 0 Z " fill="#EB445A" transform="translate(1295.28515625,718.90234375)"/>
<path d="M0 0 C4 0 4 0 5.75 1.625 C6.86375 2.800625 6.86375 2.800625 8 4 C9.28829832 5.11200486 10.60322838 6.19359733 11.9375 7.25 C12.58589844 7.77078125 13.23429687 8.2915625 13.90234375 8.828125 C16.43551328 10.24330351 18.14233542 10.21867346 21 10 C20.67 10.99 20.34 11.98 20 13 C20.33 13.66 20.66 14.32 21 15 C13.4328243 11.39404538 6.1743196 6.67369909 0 1 C0 0.67 0 0.34 0 0 Z " fill="#E5E2C8" transform="translate(1061,678)"/>
<path d="M0 0 C1.9375 0.375 1.9375 0.375 4 1 C5.46098845 3.9219769 5.11134901 6.49893475 5.09765625 9.7578125 C5.0962413 10.42086395 5.09482635 11.08391541 5.09336853 11.76705933 C5.08776754 13.88641863 5.075215 16.00567259 5.0625 18.125 C5.05748512 19.56119639 5.05292219 20.99739444 5.04882812 22.43359375 C5.03779782 25.95576345 5.02053259 29.47787145 5 33 C4.67 33 4.34 33 4 33 C3.98541748 32.17798096 3.97083496 31.35596191 3.95581055 30.5090332 C3.88123667 26.77638677 3.78460488 23.04462541 3.6875 19.3125 C3.66494141 18.01892578 3.64238281 16.72535156 3.61914062 15.39257812 C3.58369141 14.14541016 3.54824219 12.89824219 3.51171875 11.61328125 C3.48553467 10.46641846 3.45935059 9.31955566 3.43237305 8.13793945 C2.96356176 4.73555018 1.96000219 2.78598682 0 0 Z " fill="#CED7AB" transform="translate(1020,561)"/>
<path d="M0 0 C1.32 0 2.64 0 4 0 C3.67 2.97 3.34 5.94 3 9 C4.32 9.33 5.64 9.66 7 10 C4.69 10.33 2.38 10.66 0 11 C0 7.37 0 3.74 0 0 Z " fill="#EA3C5C" transform="translate(1315,720)"/>
<path d="M0 0 C0.66 0.33 1.32 0.66 2 1 C-3.28 6.28 -8.56 11.56 -14 17 C-14 13.06830895 -12.60580385 11.83572772 -10 9 C-9.34 9 -8.68 9 -8 9 C-7.79375 8.443125 -7.5875 7.88625 -7.375 7.3125 C-5.44999226 4.07498698 -2.96149098 2.31768859 0 0 Z " fill="#E4EED5" transform="translate(1107,526)"/>
<path d="M0 0 C0.33 0 0.66 0 1 0 C1 2.31 1 4.62 1 7 C-2.63 7 -6.26 7 -10 7 C-8.68 6.34 -7.36 5.68 -6 5 C-2.34991527 3.14225278 -2.34991527 3.14225278 0 0 Z " fill="#EB445A" transform="translate(1259,745)"/>
<path d="M0 0 C0.042721 1.66611905 0.04063832 3.33382885 0 5 C-1 6 -1 6 -3.28515625 6.09765625 C-4.65994141 6.08025391 -4.65994141 6.08025391 -6.0625 6.0625 C-6.98160156 6.05347656 -7.90070313 6.04445313 -8.84765625 6.03515625 C-9.55792969 6.02355469 -10.26820312 6.01195312 -11 6 C-10.40574219 5.71382812 -9.81148437 5.42765625 -9.19921875 5.1328125 C-6.77545067 3.93633215 -6.77545067 3.93633215 -3.8125 1.875 C-1 0 -1 0 0 0 Z " fill="#EB445A" transform="translate(1310,746)"/>
<path d="M0 0 C1.051875 0.4640625 1.051875 0.4640625 2.125 0.9375 C5.08936657 2.03302678 7.87698108 2.56422992 11 3 C10.67 3.99 10.34 4.98 10 6 C5.43545749 5.45660208 2.0271824 4.20536179 -2 2 C-1.34 1.34 -0.68 0.68 0 0 Z " fill="#E3E5D3" transform="translate(998,618)"/>
<path d="M0 0 C-1.45449401 1.0055761 -2.91372443 2.00430435 -4.375 3 C-5.59316406 3.8353125 -5.59316406 3.8353125 -6.8359375 4.6875 C-9 6 -9 6 -11 6 C-10.9375 4.1875 -10.9375 4.1875 -10 2 C-3.87234043 -1.29078014 -3.87234043 -1.29078014 0 0 Z " fill="#ECE3DD" transform="translate(965,619)"/>
<path d="M0 0 C2.61724095 2.36797991 4.32861729 4.89600354 6 8 C6 8.66 6 9.32 6 10 C5.01 10.33 4.02 10.66 3 11 C2.49384702 9.73160474 1.99530901 8.46016898 1.5 7.1875 C1.2215625 6.47980469 0.943125 5.77210938 0.65625 5.04296875 C0 3 0 3 0 0 Z " fill="#E4EED2" transform="translate(1025,643)"/>
<path d="M0 0 C0.66 0.33 1.32 0.66 2 1 C0.515 2.485 0.515 2.485 -1 4 C0.65 4.33 2.3 4.66 4 5 C4 5.33 4 5.66 4 6 C0.7 6 -2.6 6 -6 6 C-6 5.34 -6 4.68 -6 4 C-4.03852126 2.61061923 -2.03833424 1.2739589 0 0 Z " fill="#BCD120" transform="translate(1241,533)"/>
<path d="M0 0 C1.32 0 2.64 0 4 0 C4 1.98 4 3.96 4 6 C3.34 6 2.68 6 2 6 C0 3 0 3 0 0 Z " fill="#EB465A" transform="translate(1328,720)"/>
</svg>
